G04 #@! TF.GenerationSoftware,KiCad,Pcbnew,(5.1.5)-3*
G04 #@! TF.CreationDate,2020-06-05T21:21:33+02:00*
G04 #@! TF.ProjectId,ElectronicLoad,456c6563-7472-46f6-9e69-634c6f61642e,rev?*
G04 #@! TF.SameCoordinates,Original*
G04 #@! TF.FileFunction,Copper,L2,Bot*
G04 #@! TF.FilePolarity,Positive*
%FSLAX46Y46*%
G04 Gerber Fmt 4.6, Leading zero omitted, Abs format (unit mm)*
G04 Created by KiCad (PCBNEW (5.1.5)-3) date 2020-06-05 21:21:33*
%MOMM*%
%LPD*%
G04 APERTURE LIST*
%ADD10O,1.600000X1.600000*%
%ADD11C,1.600000*%
%ADD12O,1.700000X1.700000*%
%ADD13R,1.700000X1.700000*%
%ADD14C,3.800000*%
%ADD15C,2.000000*%
%ADD16C,1.498600*%
%ADD17R,1.498600X1.498600*%
%ADD18O,3.016000X1.508000*%
%ADD19R,2.000000X2.000000*%
%ADD20R,1.600000X1.600000*%
%ADD21C,2.200000*%
%ADD22C,1.000000*%
%ADD23C,2.500000*%
%ADD24C,0.500000*%
G04 APERTURE END LIST*
D10*
X100177600Y-94869000D03*
D11*
X110337600Y-94869000D03*
D10*
X110007400Y-113766600D03*
D11*
X110007400Y-103606600D03*
D12*
X102844600Y-100380800D03*
X105384600Y-100380800D03*
D13*
X107924600Y-100380800D03*
D12*
X145542000Y-104521000D03*
X145542000Y-101981000D03*
X145542000Y-99441000D03*
X145542000Y-96901000D03*
X145542000Y-94361000D03*
D13*
X145542000Y-91821000D03*
D14*
X145465800Y-112115600D03*
D15*
X142316200Y-126050200D03*
X147396200Y-126060200D03*
D12*
X150418800Y-78486000D03*
X147878800Y-78486000D03*
X145338800Y-78486000D03*
X142798800Y-78486000D03*
D13*
X140258800Y-78486000D03*
D14*
X150342600Y-83718400D03*
X144297400Y-83870800D03*
D16*
X98501200Y-113106200D03*
X98501200Y-110566200D03*
X98501200Y-108026200D03*
X98501200Y-105486200D03*
X106121200Y-105486200D03*
X106121200Y-108026200D03*
X106121200Y-110566200D03*
D17*
X106121200Y-113106200D03*
D18*
X156921200Y-119735600D03*
X156921200Y-117195600D03*
X156921200Y-114655600D03*
D10*
X108458000Y-118948200D03*
D11*
X98298000Y-118948200D03*
D12*
X102285800Y-75844400D03*
X102285800Y-78384400D03*
X102285800Y-80924400D03*
X102285800Y-83464400D03*
D13*
X102285800Y-86004400D03*
D12*
X138074400Y-94843600D03*
X138074400Y-92303600D03*
X138074400Y-89763600D03*
D13*
X138074400Y-87223600D03*
D14*
X129336800Y-124841000D03*
D15*
X105406200Y-126212600D03*
D19*
X100406200Y-126212600D03*
D15*
X113919000Y-122203200D03*
D19*
X113919000Y-127203200D03*
D10*
X130098800Y-111988600D03*
X114858800Y-111988600D03*
X130098800Y-76428600D03*
X114858800Y-109448600D03*
X130098800Y-78968600D03*
X114858800Y-106908600D03*
X130098800Y-81508600D03*
X114858800Y-104368600D03*
X130098800Y-84048600D03*
X114858800Y-101828600D03*
X130098800Y-86588600D03*
X114858800Y-99288600D03*
X130098800Y-89128600D03*
X114858800Y-96748600D03*
X130098800Y-91668600D03*
X114858800Y-94208600D03*
X130098800Y-94208600D03*
X114858800Y-91668600D03*
X130098800Y-96748600D03*
X114858800Y-89128600D03*
X130098800Y-99288600D03*
X114858800Y-86588600D03*
X130098800Y-101828600D03*
X114858800Y-84048600D03*
X130098800Y-104368600D03*
X114858800Y-81508600D03*
X130098800Y-106908600D03*
X114858800Y-78968600D03*
X130098800Y-109448600D03*
D20*
X114858800Y-76428600D03*
D21*
X134848600Y-78486000D03*
X135991600Y-70815200D03*
D22*
X140258800Y-78486000D02*
X134848600Y-78486000D01*
X132842000Y-78486000D02*
X132359400Y-78968600D01*
X132359400Y-78968600D02*
X130098800Y-78968600D01*
X129298801Y-79768599D02*
X123533001Y-79768599D01*
X130098800Y-78968600D02*
X129298801Y-79768599D01*
X119253000Y-84048600D02*
X114858800Y-84048600D01*
X123533001Y-79768599D02*
X119253000Y-84048600D01*
X100435800Y-86004400D02*
X97078800Y-82647400D01*
X97078800Y-82647400D02*
X97078800Y-73558400D01*
X97078800Y-73558400D02*
X99822000Y-70815200D01*
X99822000Y-70815200D02*
X135991600Y-70815200D01*
X151130000Y-70815200D02*
X156845000Y-76530200D01*
X156845000Y-76530200D02*
X156845000Y-86664800D01*
X149148800Y-94361000D02*
X145542000Y-94361000D01*
X156845000Y-86664800D02*
X149148800Y-94361000D01*
X134848600Y-78486000D02*
X132842000Y-78486000D01*
X135991600Y-70815200D02*
X151130000Y-70815200D01*
X150418800Y-83642200D02*
X150342600Y-83718400D01*
X150418800Y-78486000D02*
X150418800Y-83642200D01*
X130098800Y-91668600D02*
X131673600Y-91668600D01*
X136118600Y-87223600D02*
X138074400Y-87223600D01*
X131673600Y-91668600D02*
X136118600Y-87223600D01*
X139924400Y-87223600D02*
X142976600Y-90275800D01*
X138074400Y-87223600D02*
X139924400Y-87223600D01*
X142976600Y-90275800D02*
X142976600Y-95758000D01*
X144119600Y-96901000D02*
X145542000Y-96901000D01*
X142976600Y-95758000D02*
X144119600Y-96901000D01*
X138074400Y-89763600D02*
X136271000Y-89763600D01*
X131826000Y-94208600D02*
X130098800Y-94208600D01*
X136271000Y-89763600D02*
X131826000Y-94208600D01*
X139276481Y-89763600D02*
X139301881Y-89789000D01*
X138074400Y-89763600D02*
X139276481Y-89763600D01*
X139301881Y-89789000D02*
X139877800Y-89789000D01*
X139877800Y-89789000D02*
X141147800Y-91059000D01*
X141147800Y-91059000D02*
X141147800Y-96850200D01*
X143738600Y-99441000D02*
X145542000Y-99441000D01*
X141147800Y-96850200D02*
X143738600Y-99441000D01*
X102285800Y-80924400D02*
X103555800Y-80924400D01*
X103555800Y-80924400D02*
X108483400Y-85852000D01*
X108483400Y-85852000D02*
X108483400Y-89154000D01*
X110998000Y-91668600D02*
X114858800Y-91668600D01*
X108483400Y-89154000D02*
X110998000Y-91668600D01*
X102285800Y-78384400D02*
X104140000Y-78384400D01*
X104140000Y-78384400D02*
X110617000Y-84861400D01*
X110617000Y-84861400D02*
X110617000Y-88544400D01*
X111201200Y-89128600D02*
X114858800Y-89128600D01*
X110617000Y-88544400D02*
X111201200Y-89128600D01*
X102285800Y-75844400D02*
X104597200Y-75844400D01*
X104597200Y-75844400D02*
X112268000Y-83515200D01*
X112268000Y-83515200D02*
X112268000Y-85775800D01*
X113080800Y-86588600D02*
X114858800Y-86588600D01*
X112268000Y-85775800D02*
X113080800Y-86588600D01*
X145542000Y-112039400D02*
X145465800Y-112115600D01*
X145542000Y-104521000D02*
X145542000Y-112039400D01*
D23*
X145465800Y-112115600D02*
X145465800Y-109428595D01*
X145542000Y-109352395D02*
X145542000Y-104681010D01*
X145465800Y-109428595D02*
X145542000Y-109352395D01*
D22*
X145542000Y-85115400D02*
X144297400Y-83870800D01*
X145542000Y-91821000D02*
X145542000Y-85115400D01*
X131902200Y-114554000D02*
X132537200Y-113919000D01*
X132537200Y-113919000D02*
X132537200Y-96367600D01*
X136601200Y-92303600D02*
X138074400Y-92303600D01*
X132537200Y-96367600D02*
X136601200Y-92303600D01*
X130098800Y-84048600D02*
X128371600Y-84048600D01*
X128371600Y-84048600D02*
X128066800Y-84353400D01*
X128066800Y-114427000D02*
X128193800Y-114554000D01*
X128066800Y-84353400D02*
X128066800Y-114427000D01*
X128193800Y-114554000D02*
X131902200Y-114554000D01*
X144119600Y-84048600D02*
X144297400Y-83870800D01*
X130098800Y-84048600D02*
X144119600Y-84048600D01*
X101083719Y-83464400D02*
X102285800Y-83464400D01*
X100101400Y-82482081D02*
X101083719Y-83464400D01*
X151561800Y-75209400D02*
X135178800Y-75209400D01*
X100101400Y-74549000D02*
X100101400Y-82482081D01*
X154254200Y-77901800D02*
X151561800Y-75209400D01*
X145542000Y-91821000D02*
X147904200Y-91821000D01*
X147904200Y-91821000D02*
X154254200Y-85471000D01*
X133451600Y-73482200D02*
X133451600Y-73456800D01*
X154254200Y-85471000D02*
X154254200Y-77901800D01*
X135178800Y-75209400D02*
X133451600Y-73482200D01*
X133451600Y-73456800D02*
X132791200Y-72796400D01*
X101854000Y-72796400D02*
X100101400Y-74549000D01*
X132791200Y-72796400D02*
X101854000Y-72796400D01*
D23*
X141107000Y-124841000D02*
X142316200Y-126050200D01*
X129336800Y-124841000D02*
X141107000Y-124841000D01*
D22*
X126800600Y-122304800D02*
X129336800Y-124841000D01*
X100435800Y-86004400D02*
X102285800Y-86004400D01*
X124002800Y-130175000D02*
X129336800Y-124841000D01*
X107924600Y-101523800D02*
X110007400Y-103606600D01*
X107924600Y-100380800D02*
X107924600Y-101523800D01*
X108000800Y-103606600D02*
X106121200Y-105486200D01*
X110007400Y-103606600D02*
X108000800Y-103606600D01*
X97840800Y-98882200D02*
X104444800Y-105486200D01*
X104444800Y-105486200D02*
X106121200Y-105486200D01*
X100435800Y-86004400D02*
X97840800Y-88599400D01*
X97840800Y-88599400D02*
X97840800Y-98882200D01*
X98501200Y-105486200D02*
X106121200Y-105486200D01*
X106930200Y-126212600D02*
X105406200Y-126212600D01*
X108996999Y-124145801D02*
X106930200Y-126212600D01*
X104165400Y-130225800D02*
X123977400Y-130225800D01*
X102387400Y-128447800D02*
X104165400Y-130225800D01*
X105435400Y-117119400D02*
X102387400Y-120167400D01*
X132689600Y-117119400D02*
X105435400Y-117119400D01*
X135280400Y-114528600D02*
X132689600Y-117119400D01*
X135280400Y-98839681D02*
X135280400Y-114528600D01*
X102387400Y-120167400D02*
X102387400Y-128447800D01*
X106527600Y-130175000D02*
X123977400Y-130225800D01*
X138074400Y-94843600D02*
X138074400Y-96045681D01*
X123977400Y-130225800D02*
X124002800Y-130175000D01*
X138074400Y-96045681D02*
X135280400Y-98839681D01*
X110731799Y-124145801D02*
X112318800Y-122558800D01*
X108996999Y-124145801D02*
X110731799Y-124145801D01*
X112504787Y-122203200D02*
X113919000Y-122203200D01*
X112318800Y-122389187D02*
X112504787Y-122203200D01*
X112318800Y-122558800D02*
X112318800Y-122389187D01*
X126699000Y-122203200D02*
X126800600Y-122304800D01*
X113919000Y-122203200D02*
X126699000Y-122203200D01*
X114058801Y-105168599D02*
X113042801Y-105168599D01*
X114858800Y-104368600D02*
X114058801Y-105168599D01*
X113042801Y-105168599D02*
X110667800Y-107543600D01*
X110667800Y-107543600D02*
X110667800Y-109499400D01*
X109601000Y-110566200D02*
X110667800Y-109499400D01*
X106121200Y-110566200D02*
X109601000Y-110566200D01*
X109601000Y-112228830D02*
X109601000Y-110566200D01*
X110007400Y-112635230D02*
X109601000Y-112228830D01*
X110007400Y-113766600D02*
X110007400Y-112635230D01*
X110337600Y-94869000D02*
X108305600Y-94869000D01*
X105384600Y-97790000D02*
X105384600Y-100380800D01*
X108305600Y-94869000D02*
X105384600Y-97790000D01*
X113727430Y-101828600D02*
X112660630Y-100761800D01*
X114858800Y-101828600D02*
X113727430Y-101828600D01*
X112660630Y-97192030D02*
X110337600Y-94869000D01*
X112660630Y-100761800D02*
X112660630Y-97192030D01*
X148920200Y-118973600D02*
X153238200Y-114655600D01*
X153238200Y-114655600D02*
X156921200Y-114655600D01*
X123037600Y-118973600D02*
X148920200Y-118973600D01*
X123012200Y-118948200D02*
X108458000Y-118948200D01*
X123037600Y-118973600D02*
X123012200Y-118948200D01*
X113563400Y-127558800D02*
X113919000Y-127203200D01*
X103706199Y-123700001D02*
X103706199Y-127028601D01*
X110318800Y-127558800D02*
X113563400Y-127558800D01*
X104871398Y-128193800D02*
X109683800Y-128193800D01*
X108458000Y-118948200D02*
X103706199Y-123700001D01*
X103706199Y-127028601D02*
X104871398Y-128193800D01*
X109683800Y-128193800D02*
X110318800Y-127558800D01*
X98501200Y-108026200D02*
X98501200Y-110566200D01*
X96875600Y-117525800D02*
X98298000Y-118948200D01*
X98501200Y-110566200D02*
X96875600Y-112191800D01*
X96875600Y-112191800D02*
X96875600Y-117525800D01*
X103487881Y-83464400D02*
X105232200Y-85208719D01*
X102285800Y-83464400D02*
X103487881Y-83464400D01*
X105232200Y-89814400D02*
X100177600Y-94869000D01*
X105232200Y-85208719D02*
X105232200Y-89814400D01*
X100177600Y-97713800D02*
X102844600Y-100380800D01*
X100177600Y-94869000D02*
X100177600Y-97713800D01*
X98501200Y-113106200D02*
X106121200Y-113106200D01*
X100406200Y-116070870D02*
X100406200Y-126212600D01*
X98501200Y-113106200D02*
X98501200Y-114165870D01*
X98501200Y-114165870D02*
X100406200Y-116070870D01*
X106121200Y-114855500D02*
X106121200Y-113106200D01*
X106886500Y-115620800D02*
X106121200Y-114855500D01*
X112090200Y-115620800D02*
X106886500Y-115620800D01*
X113157000Y-114554000D02*
X112090200Y-115620800D01*
X128193800Y-114554000D02*
X113157000Y-114554000D01*
D23*
X153926800Y-125984000D02*
X152704800Y-125984000D01*
X156921200Y-122989600D02*
X153926800Y-125984000D01*
X156921200Y-119735600D02*
X156921200Y-122989600D01*
X152628600Y-126060200D02*
X147396200Y-126060200D01*
X152704800Y-125984000D02*
X152628600Y-126060200D01*
D22*
X159429200Y-117195600D02*
X156921200Y-117195600D01*
X159639000Y-116985800D02*
X159429200Y-117195600D01*
D23*
X149580600Y-101981000D02*
X159639000Y-112039400D01*
X145542000Y-101981000D02*
X149580600Y-101981000D01*
D22*
X159639000Y-112039400D02*
X159639000Y-116985800D01*
D23*
X159879210Y-115568530D02*
X158412150Y-117035590D01*
X159639000Y-112039400D02*
X159879210Y-112279610D01*
X158412150Y-117035590D02*
X156921200Y-117035590D01*
X159879210Y-112279610D02*
X159879210Y-115568530D01*
D24*
G36*
X161385644Y-110391931D02*
G01*
X151361024Y-100367312D01*
X151285867Y-100275733D01*
X150920420Y-99975818D01*
X150503484Y-99752961D01*
X150051082Y-99615726D01*
X149698500Y-99581000D01*
X149698489Y-99581000D01*
X149580600Y-99569389D01*
X149462711Y-99581000D01*
X147542000Y-99581000D01*
X147542000Y-99244017D01*
X147465141Y-98857622D01*
X147314377Y-98493645D01*
X147098792Y-98171000D01*
X147314377Y-97848355D01*
X147465141Y-97484378D01*
X147542000Y-97097983D01*
X147542000Y-96704017D01*
X147465141Y-96317622D01*
X147314377Y-95953645D01*
X147155508Y-95715881D01*
X147384286Y-95385538D01*
X147548764Y-95006440D01*
X147569143Y-94939234D01*
X147317423Y-94615000D01*
X145796000Y-94615000D01*
X145796000Y-94635000D01*
X145288000Y-94635000D01*
X145288000Y-94615000D01*
X145268000Y-94615000D01*
X145268000Y-94107000D01*
X145288000Y-94107000D01*
X145288000Y-94087000D01*
X145796000Y-94087000D01*
X145796000Y-94107000D01*
X147317423Y-94107000D01*
X147569143Y-93782766D01*
X147548764Y-93715560D01*
X147442658Y-93471000D01*
X147823158Y-93471000D01*
X147904200Y-93478982D01*
X147985242Y-93471000D01*
X147985252Y-93471000D01*
X148227656Y-93447125D01*
X148538683Y-93352777D01*
X148825326Y-93199562D01*
X149076571Y-92993371D01*
X149128245Y-92930406D01*
X155363613Y-86695039D01*
X155426571Y-86643371D01*
X155632762Y-86392126D01*
X155785977Y-86105483D01*
X155880325Y-85794456D01*
X155904200Y-85552052D01*
X155904200Y-85552043D01*
X155912182Y-85471001D01*
X155904200Y-85389959D01*
X155904200Y-77982852D01*
X155912183Y-77901800D01*
X155898960Y-77767541D01*
X155880325Y-77578344D01*
X155785977Y-77267317D01*
X155632762Y-76980674D01*
X155426571Y-76729429D01*
X155363612Y-76677760D01*
X152785844Y-74099993D01*
X152734171Y-74037029D01*
X152482926Y-73830838D01*
X152196283Y-73677623D01*
X151885256Y-73583275D01*
X151642852Y-73559400D01*
X151642842Y-73559400D01*
X151561800Y-73551418D01*
X151480758Y-73559400D01*
X135862252Y-73559400D01*
X134791883Y-72489032D01*
X134778680Y-72472944D01*
X134623971Y-72284429D01*
X134561006Y-72232755D01*
X134015245Y-71686994D01*
X133963571Y-71624029D01*
X133712326Y-71417838D01*
X133425683Y-71264623D01*
X133114656Y-71170275D01*
X132872252Y-71146400D01*
X132872242Y-71146400D01*
X132791200Y-71138418D01*
X132710158Y-71146400D01*
X101935052Y-71146400D01*
X101854000Y-71138417D01*
X101772948Y-71146400D01*
X101530544Y-71170275D01*
X101219517Y-71264623D01*
X100932874Y-71417838D01*
X100681629Y-71624029D01*
X100629960Y-71686988D01*
X98991993Y-73324956D01*
X98929029Y-73376629D01*
X98722838Y-73627875D01*
X98569623Y-73914518D01*
X98475275Y-74225545D01*
X98451400Y-74467949D01*
X98451400Y-74467958D01*
X98443418Y-74549000D01*
X98451400Y-74630042D01*
X98451401Y-82401029D01*
X98443418Y-82482081D01*
X98475276Y-82805537D01*
X98569623Y-83116563D01*
X98650257Y-83267417D01*
X98722839Y-83403207D01*
X98929030Y-83654452D01*
X98991989Y-83706121D01*
X99859674Y-84573806D01*
X99911348Y-84636771D01*
X100154741Y-84836518D01*
X100162593Y-84842962D01*
X100208262Y-84867373D01*
X100196002Y-84907789D01*
X100171713Y-85154400D01*
X100177800Y-85435900D01*
X100492300Y-85750400D01*
X102031800Y-85750400D01*
X102031800Y-85730400D01*
X102539800Y-85730400D01*
X102539800Y-85750400D01*
X102559800Y-85750400D01*
X102559800Y-86258400D01*
X102539800Y-86258400D01*
X102539800Y-87797900D01*
X102854300Y-88112400D01*
X103135800Y-88118487D01*
X103382411Y-88094198D01*
X103582201Y-88033592D01*
X103582201Y-89130947D01*
X99746625Y-92966524D01*
X99608806Y-92993938D01*
X99253929Y-93140933D01*
X98934548Y-93354336D01*
X98662936Y-93625948D01*
X98449533Y-93945329D01*
X98302538Y-94300206D01*
X98227600Y-94676942D01*
X98227600Y-95061058D01*
X98302538Y-95437794D01*
X98449533Y-95792671D01*
X98527600Y-95909507D01*
X98527601Y-97632749D01*
X98519618Y-97713800D01*
X98551476Y-98037256D01*
X98645823Y-98348282D01*
X98773582Y-98587300D01*
X98799039Y-98634926D01*
X99005230Y-98886171D01*
X99068189Y-98937840D01*
X100878486Y-100748137D01*
X100921459Y-100964178D01*
X101072223Y-101328155D01*
X101291099Y-101655726D01*
X101569674Y-101934301D01*
X101897245Y-102153177D01*
X102261222Y-102303941D01*
X102647617Y-102380800D01*
X103041583Y-102380800D01*
X103427978Y-102303941D01*
X103791955Y-102153177D01*
X104114600Y-101937592D01*
X104437245Y-102153177D01*
X104801222Y-102303941D01*
X105187617Y-102380800D01*
X105581583Y-102380800D01*
X105967978Y-102303941D01*
X106254577Y-102185228D01*
X106372311Y-102281850D01*
X106590855Y-102398664D01*
X106827989Y-102470598D01*
X107074600Y-102494887D01*
X107356100Y-102488800D01*
X107670600Y-102174300D01*
X107670600Y-100634800D01*
X107650600Y-100634800D01*
X107650600Y-100126800D01*
X107670600Y-100126800D01*
X107670600Y-98587300D01*
X108178600Y-98587300D01*
X108178600Y-100126800D01*
X109718100Y-100126800D01*
X110032600Y-99812300D01*
X110038687Y-99530800D01*
X110014398Y-99284189D01*
X109942464Y-99047055D01*
X109825650Y-98828511D01*
X109668444Y-98636956D01*
X109476889Y-98479750D01*
X109258345Y-98362936D01*
X109021211Y-98291002D01*
X108774600Y-98266713D01*
X108493100Y-98272800D01*
X108178600Y-98587300D01*
X107670600Y-98587300D01*
X107356100Y-98272800D01*
X107237809Y-98270242D01*
X108989052Y-96519000D01*
X109297093Y-96519000D01*
X109413929Y-96597067D01*
X109768806Y-96744062D01*
X109906625Y-96771476D01*
X111010631Y-97875483D01*
X111010630Y-100680758D01*
X111002648Y-100761800D01*
X111010630Y-100842842D01*
X111010630Y-100842851D01*
X111034505Y-101085255D01*
X111128853Y-101396282D01*
X111282068Y-101682925D01*
X111488259Y-101934171D01*
X111551224Y-101985845D01*
X112503385Y-102938006D01*
X112555059Y-103000971D01*
X112806304Y-103207162D01*
X113092947Y-103360377D01*
X113171340Y-103384157D01*
X113130733Y-103444929D01*
X113101144Y-103516362D01*
X113042801Y-103510616D01*
X112961749Y-103518599D01*
X112719345Y-103542474D01*
X112408318Y-103636822D01*
X112121675Y-103790037D01*
X112062276Y-103838785D01*
X112062290Y-103838718D01*
X112068089Y-103433369D01*
X111994698Y-103034678D01*
X111844936Y-102657965D01*
X111817043Y-102605779D01*
X111413810Y-102559400D01*
X110366610Y-103606600D01*
X110380753Y-103620743D01*
X110021543Y-103979953D01*
X110007400Y-103965810D01*
X108960200Y-105013010D01*
X109006579Y-105416243D01*
X109378853Y-105576721D01*
X109775282Y-105661490D01*
X110180631Y-105667289D01*
X110217434Y-105660514D01*
X109558393Y-106319556D01*
X109495429Y-106371229D01*
X109289238Y-106622475D01*
X109136023Y-106909118D01*
X109041675Y-107220145D01*
X109017800Y-107462549D01*
X109017800Y-107462558D01*
X109009818Y-107543600D01*
X109017800Y-107624642D01*
X109017801Y-108815948D01*
X108917549Y-108916200D01*
X107808338Y-108916200D01*
X107947511Y-108580205D01*
X108020500Y-108213265D01*
X108020500Y-107839135D01*
X107947511Y-107472195D01*
X107804338Y-107126544D01*
X107614999Y-106843177D01*
X107726195Y-106731981D01*
X107491193Y-106496979D01*
X107889304Y-106456842D01*
X108044693Y-106093251D01*
X108126163Y-105706332D01*
X108130584Y-105310953D01*
X108057785Y-104922310D01*
X107910565Y-104555336D01*
X107889304Y-104515558D01*
X107491190Y-104475421D01*
X106480410Y-105486200D01*
X106494553Y-105500342D01*
X106135343Y-105859553D01*
X106121200Y-105845410D01*
X106107058Y-105859553D01*
X105747847Y-105500342D01*
X105761990Y-105486200D01*
X104751210Y-104475421D01*
X104353096Y-104515558D01*
X104197707Y-104879149D01*
X104116237Y-105266068D01*
X104111816Y-105661447D01*
X104184615Y-106050090D01*
X104331835Y-106417064D01*
X104353096Y-106456842D01*
X104751207Y-106496979D01*
X104516205Y-106731981D01*
X104627401Y-106843177D01*
X104438062Y-107126544D01*
X104294889Y-107472195D01*
X104221900Y-107839135D01*
X104221900Y-108213265D01*
X104294889Y-108580205D01*
X104438062Y-108925856D01*
X104645917Y-109236933D01*
X104705184Y-109296200D01*
X104645917Y-109355467D01*
X104438062Y-109666544D01*
X104294889Y-110012195D01*
X104221900Y-110379135D01*
X104221900Y-110753265D01*
X104294889Y-111120205D01*
X104434062Y-111456200D01*
X100188338Y-111456200D01*
X100327511Y-111120205D01*
X100400500Y-110753265D01*
X100400500Y-110379135D01*
X100327511Y-110012195D01*
X100184338Y-109666544D01*
X100151200Y-109616949D01*
X100151200Y-108975451D01*
X100184338Y-108925856D01*
X100327511Y-108580205D01*
X100400500Y-108213265D01*
X100400500Y-107839135D01*
X100327511Y-107472195D01*
X100184338Y-107126544D01*
X99994999Y-106843177D01*
X100106195Y-106731981D01*
X99871193Y-106496979D01*
X100269304Y-106456842D01*
X100424693Y-106093251D01*
X100506163Y-105706332D01*
X100510584Y-105310953D01*
X100437785Y-104922310D01*
X100290565Y-104555336D01*
X100269304Y-104515558D01*
X99871190Y-104475421D01*
X98860410Y-105486200D01*
X98874553Y-105500342D01*
X98515343Y-105859553D01*
X98501200Y-105845410D01*
X98487058Y-105859553D01*
X98127847Y-105500342D01*
X98141990Y-105486200D01*
X97131210Y-104475421D01*
X96733096Y-104515558D01*
X96577707Y-104879149D01*
X96496237Y-105266068D01*
X96491816Y-105661447D01*
X96564615Y-106050090D01*
X96711835Y-106417064D01*
X96733096Y-106456842D01*
X97131207Y-106496979D01*
X96896205Y-106731981D01*
X97007401Y-106843177D01*
X96818062Y-107126544D01*
X96674889Y-107472195D01*
X96601900Y-107839135D01*
X96601900Y-108213265D01*
X96674889Y-108580205D01*
X96818062Y-108925856D01*
X96851200Y-108975451D01*
X96851201Y-109616949D01*
X96818062Y-109666544D01*
X96674889Y-110012195D01*
X96663252Y-110070696D01*
X95766193Y-110967756D01*
X95703229Y-111019429D01*
X95497038Y-111270675D01*
X95343823Y-111557318D01*
X95249475Y-111868345D01*
X95225600Y-112110749D01*
X95225600Y-112110758D01*
X95217618Y-112191800D01*
X95225600Y-112272842D01*
X95225601Y-117444748D01*
X95217618Y-117525800D01*
X95249476Y-117849256D01*
X95343823Y-118160282D01*
X95462739Y-118382755D01*
X95497039Y-118446926D01*
X95703230Y-118698171D01*
X95766188Y-118749839D01*
X96395524Y-119379176D01*
X96422938Y-119516994D01*
X96569933Y-119871871D01*
X96783336Y-120191252D01*
X97054948Y-120462864D01*
X97374329Y-120676267D01*
X97729206Y-120823262D01*
X98105942Y-120898200D01*
X98490058Y-120898200D01*
X98756200Y-120845261D01*
X98756201Y-124258351D01*
X98589093Y-124395493D01*
X98445384Y-124570603D01*
X98338598Y-124770385D01*
X98272840Y-124987161D01*
X98250636Y-125212600D01*
X98250636Y-127212600D01*
X98272840Y-127438039D01*
X98338598Y-127654815D01*
X98445384Y-127854597D01*
X98589093Y-128029707D01*
X98764203Y-128173416D01*
X98963985Y-128280202D01*
X99180761Y-128345960D01*
X99406200Y-128368164D01*
X101406200Y-128368164D01*
X101631639Y-128345960D01*
X101848415Y-128280202D01*
X102048197Y-128173416D01*
X102223307Y-128029707D01*
X102312377Y-127921175D01*
X102327638Y-127949727D01*
X102533829Y-128200972D01*
X102596788Y-128252641D01*
X103647358Y-129303211D01*
X103699027Y-129366171D01*
X103950272Y-129572362D01*
X104236915Y-129725577D01*
X104547942Y-129819925D01*
X104790346Y-129843800D01*
X104790355Y-129843800D01*
X104871397Y-129851782D01*
X104952439Y-129843800D01*
X109602758Y-129843800D01*
X109683800Y-129851782D01*
X109764842Y-129843800D01*
X109764852Y-129843800D01*
X110007256Y-129819925D01*
X110318283Y-129725577D01*
X110604926Y-129572362D01*
X110856171Y-129366171D01*
X110907845Y-129303206D01*
X111002251Y-129208800D01*
X112360788Y-129208800D01*
X112476785Y-129270802D01*
X112693561Y-129336560D01*
X112919000Y-129358764D01*
X114919000Y-129358764D01*
X115144439Y-129336560D01*
X115361215Y-129270802D01*
X115560997Y-129164016D01*
X115736107Y-129020307D01*
X115879816Y-128845197D01*
X115986602Y-128645415D01*
X116052360Y-128428639D01*
X116074564Y-128203200D01*
X116074564Y-127034073D01*
X127502937Y-127034073D01*
X127683067Y-127549297D01*
X128243206Y-127819885D01*
X128845371Y-127975996D01*
X129466420Y-128011631D01*
X130082489Y-127925420D01*
X130669901Y-127720678D01*
X130895539Y-127600072D01*
X141125538Y-127600072D01*
X141196433Y-128023558D01*
X141602931Y-128204097D01*
X142036841Y-128301862D01*
X142481486Y-128313097D01*
X142919779Y-128237370D01*
X143334877Y-128077592D01*
X143435967Y-128023558D01*
X143506862Y-127600072D01*
X142316200Y-126409410D01*
X141125538Y-127600072D01*
X130895539Y-127600072D01*
X130990533Y-127549297D01*
X131170663Y-127034073D01*
X129336800Y-125200210D01*
X127502937Y-127034073D01*
X116074564Y-127034073D01*
X116074564Y-126203200D01*
X116052360Y-125977761D01*
X115986602Y-125760985D01*
X115879816Y-125561203D01*
X115736107Y-125386093D01*
X115560997Y-125242384D01*
X115361215Y-125135598D01*
X115144439Y-125069840D01*
X114919000Y-125047636D01*
X112919000Y-125047636D01*
X112693561Y-125069840D01*
X112476785Y-125135598D01*
X112277003Y-125242384D01*
X112101893Y-125386093D01*
X111958184Y-125561203D01*
X111851398Y-125760985D01*
X111806559Y-125908800D01*
X110399852Y-125908800D01*
X110318800Y-125900817D01*
X110237748Y-125908800D01*
X109995344Y-125932675D01*
X109684317Y-126027023D01*
X109397674Y-126180238D01*
X109146429Y-126386429D01*
X109094755Y-126449394D01*
X109000349Y-126543800D01*
X107646182Y-126543800D01*
X107657862Y-126491959D01*
X107669097Y-126047314D01*
X107593370Y-125609021D01*
X107433592Y-125193923D01*
X107379558Y-125092833D01*
X106956072Y-125021938D01*
X105765410Y-126212600D01*
X105779553Y-126226743D01*
X105508672Y-126497623D01*
X105356199Y-126345150D01*
X105356199Y-125875106D01*
X105392058Y-125839248D01*
X105406200Y-125853390D01*
X106288970Y-124970620D01*
X126166169Y-124970620D01*
X126252380Y-125586689D01*
X126457122Y-126174101D01*
X126628503Y-126494733D01*
X127143727Y-126674863D01*
X128977590Y-124841000D01*
X129696010Y-124841000D01*
X131529873Y-126674863D01*
X132045097Y-126494733D01*
X132179993Y-126215486D01*
X140053303Y-126215486D01*
X140129030Y-126653779D01*
X140288808Y-127068877D01*
X140342842Y-127169967D01*
X140766328Y-127240862D01*
X141956990Y-126050200D01*
X142675410Y-126050200D01*
X143866072Y-127240862D01*
X144289558Y-127169967D01*
X144470097Y-126763469D01*
X144567862Y-126329559D01*
X144579097Y-125884914D01*
X144503370Y-125446621D01*
X144343592Y-125031523D01*
X144289558Y-124930433D01*
X143866072Y-124859538D01*
X142675410Y-126050200D01*
X141956990Y-126050200D01*
X140766328Y-124859538D01*
X140342842Y-124930433D01*
X140162303Y-125336931D01*
X140064538Y-125770841D01*
X140053303Y-126215486D01*
X132179993Y-126215486D01*
X132315685Y-125934594D01*
X132471796Y-125332429D01*
X132507431Y-124711380D01*
X132477897Y-124500328D01*
X141125538Y-124500328D01*
X142316200Y-125690990D01*
X143506862Y-124500328D01*
X143435967Y-124076842D01*
X143029469Y-123896303D01*
X142595559Y-123798538D01*
X142150914Y-123787303D01*
X141712621Y-123863030D01*
X141297523Y-124022808D01*
X141196433Y-124076842D01*
X141125538Y-124500328D01*
X132477897Y-124500328D01*
X132421220Y-124095311D01*
X132216478Y-123507899D01*
X132045097Y-123187267D01*
X131529873Y-123007137D01*
X129696010Y-124841000D01*
X128977590Y-124841000D01*
X127143727Y-123007137D01*
X126628503Y-123187267D01*
X126357915Y-123747406D01*
X126201804Y-124349571D01*
X126166169Y-124970620D01*
X106288970Y-124970620D01*
X106596862Y-124662728D01*
X106525967Y-124239242D01*
X106119469Y-124058703D01*
X105761584Y-123978067D01*
X105986579Y-123753072D01*
X112728338Y-123753072D01*
X112799233Y-124176558D01*
X113205731Y-124357097D01*
X113639641Y-124454862D01*
X114084286Y-124466097D01*
X114522579Y-124390370D01*
X114937677Y-124230592D01*
X115038767Y-124176558D01*
X115109662Y-123753072D01*
X113919000Y-122562410D01*
X112728338Y-123753072D01*
X105986579Y-123753072D01*
X107371166Y-122368486D01*
X111656103Y-122368486D01*
X111731830Y-122806779D01*
X111891608Y-123221877D01*
X111945642Y-123322967D01*
X112369128Y-123393862D01*
X113559790Y-122203200D01*
X114278210Y-122203200D01*
X115468872Y-123393862D01*
X115892358Y-123322967D01*
X116072897Y-122916469D01*
X116133402Y-122647927D01*
X127502937Y-122647927D01*
X129336800Y-124481790D01*
X131170663Y-122647927D01*
X130990533Y-122132703D01*
X130430394Y-121862115D01*
X129828229Y-121706004D01*
X129207180Y-121670369D01*
X128591111Y-121756580D01*
X128003699Y-121961322D01*
X127683067Y-122132703D01*
X127502937Y-122647927D01*
X116133402Y-122647927D01*
X116170662Y-122482559D01*
X116181897Y-122037914D01*
X116106170Y-121599621D01*
X115946392Y-121184523D01*
X115892358Y-121083433D01*
X115468872Y-121012538D01*
X114278210Y-122203200D01*
X113559790Y-122203200D01*
X112369128Y-121012538D01*
X111945642Y-121083433D01*
X111765103Y-121489931D01*
X111667338Y-121923841D01*
X111656103Y-122368486D01*
X107371166Y-122368486D01*
X108888977Y-120850676D01*
X109026794Y-120823262D01*
X109381671Y-120676267D01*
X109498507Y-120598200D01*
X112737567Y-120598200D01*
X112728338Y-120653328D01*
X113919000Y-121843990D01*
X115109662Y-120653328D01*
X115100433Y-120598200D01*
X122709117Y-120598200D01*
X122714144Y-120599725D01*
X122956548Y-120623600D01*
X122956558Y-120623600D01*
X123037599Y-120631582D01*
X123118641Y-120623600D01*
X148839158Y-120623600D01*
X148920200Y-120631582D01*
X149001242Y-120623600D01*
X149001252Y-120623600D01*
X149243656Y-120599725D01*
X149554683Y-120505377D01*
X149841326Y-120352162D01*
X150092571Y-120145971D01*
X150144244Y-120083007D01*
X153921652Y-116305600D01*
X154483993Y-116305600D01*
X154399623Y-116463445D01*
X154290750Y-116822351D01*
X154253988Y-117195600D01*
X154290750Y-117568849D01*
X154399623Y-117927755D01*
X154576422Y-118258524D01*
X154746366Y-118465600D01*
X154576422Y-118672676D01*
X154399623Y-119003445D01*
X154290750Y-119362351D01*
X154253988Y-119735600D01*
X154290750Y-120108849D01*
X154399623Y-120467755D01*
X154521200Y-120695210D01*
X154521200Y-121995487D01*
X152932688Y-123584000D01*
X152822689Y-123584000D01*
X152704799Y-123572389D01*
X152586910Y-123584000D01*
X152586900Y-123584000D01*
X152234318Y-123618726D01*
X152097597Y-123660200D01*
X147278300Y-123660200D01*
X146925718Y-123694926D01*
X146473316Y-123832161D01*
X146056380Y-124055018D01*
X145690933Y-124354933D01*
X145391018Y-124720380D01*
X145168161Y-125137316D01*
X145030926Y-125589718D01*
X144984588Y-126060200D01*
X145030926Y-126530682D01*
X145168161Y-126983084D01*
X145391018Y-127400020D01*
X145690933Y-127765467D01*
X146056380Y-128065382D01*
X146473316Y-128288239D01*
X146925718Y-128425474D01*
X147278300Y-128460200D01*
X152510711Y-128460200D01*
X152628600Y-128471811D01*
X152746489Y-128460200D01*
X152746500Y-128460200D01*
X153099082Y-128425474D01*
X153235803Y-128384000D01*
X153808911Y-128384000D01*
X153926800Y-128395611D01*
X154044689Y-128384000D01*
X154044700Y-128384000D01*
X154397282Y-128349274D01*
X154849684Y-128212039D01*
X155266620Y-127989182D01*
X155632067Y-127689267D01*
X155707224Y-127597688D01*
X158534893Y-124770020D01*
X158626467Y-124694867D01*
X158701620Y-124603293D01*
X158701624Y-124603289D01*
X158926382Y-124329421D01*
X159088868Y-124025430D01*
X159149239Y-123912484D01*
X159286474Y-123460082D01*
X159321200Y-123107500D01*
X159321200Y-123107491D01*
X159332811Y-122989601D01*
X159321200Y-122871711D01*
X159321200Y-120695210D01*
X159442777Y-120467755D01*
X159551650Y-120108849D01*
X159588412Y-119735600D01*
X159551650Y-119362351D01*
X159495659Y-119177773D01*
X159751970Y-119040772D01*
X160117417Y-118740857D01*
X160179116Y-118665676D01*
X160350326Y-118574162D01*
X160601571Y-118367971D01*
X160653245Y-118305006D01*
X160748406Y-118209845D01*
X160811371Y-118158171D01*
X161017562Y-117906926D01*
X161112453Y-117729399D01*
X161377180Y-117464672D01*
X161361008Y-130979460D01*
X95130069Y-130881340D01*
X95140779Y-104116210D01*
X97490421Y-104116210D01*
X98501200Y-105126990D01*
X99511979Y-104116210D01*
X105110421Y-104116210D01*
X106121200Y-105126990D01*
X107131979Y-104116210D01*
X107098066Y-103779831D01*
X107946711Y-103779831D01*
X108020102Y-104178522D01*
X108169864Y-104555235D01*
X108197757Y-104607421D01*
X108600990Y-104653800D01*
X109648190Y-103606600D01*
X109634048Y-103592458D01*
X109993258Y-103233248D01*
X110007400Y-103247390D01*
X111054600Y-102200190D01*
X111008221Y-101796957D01*
X110635947Y-101636479D01*
X110239518Y-101551710D01*
X109992930Y-101548182D01*
X110014398Y-101477411D01*
X110038687Y-101230800D01*
X110032600Y-100949300D01*
X109718100Y-100634800D01*
X108178600Y-100634800D01*
X108178600Y-102174300D01*
X108493100Y-102488800D01*
X108531211Y-102489624D01*
X108600987Y-102559400D01*
X108197757Y-102605779D01*
X108037279Y-102978053D01*
X107952510Y-103374482D01*
X107946711Y-103779831D01*
X107098066Y-103779831D01*
X107091842Y-103718096D01*
X106728251Y-103562707D01*
X106341332Y-103481237D01*
X105945953Y-103476816D01*
X105557310Y-103549615D01*
X105190336Y-103696835D01*
X105150558Y-103718096D01*
X105110421Y-104116210D01*
X99511979Y-104116210D01*
X99471842Y-103718096D01*
X99108251Y-103562707D01*
X98721332Y-103481237D01*
X98325953Y-103476816D01*
X97937310Y-103549615D01*
X97570336Y-103696835D01*
X97530558Y-103718096D01*
X97490421Y-104116210D01*
X95140779Y-104116210D01*
X95147687Y-86854400D01*
X100171713Y-86854400D01*
X100196002Y-87101011D01*
X100267936Y-87338145D01*
X100384750Y-87556689D01*
X100541956Y-87748244D01*
X100733511Y-87905450D01*
X100952055Y-88022264D01*
X101189189Y-88094198D01*
X101435800Y-88118487D01*
X101717300Y-88112400D01*
X102031800Y-87797900D01*
X102031800Y-86258400D01*
X100492300Y-86258400D01*
X100177800Y-86572900D01*
X100171713Y-86854400D01*
X95147687Y-86854400D01*
X95154531Y-69753262D01*
X161434391Y-69655143D01*
X161385644Y-110391931D01*
G37*
X161385644Y-110391931D02*
X151361024Y-100367312D01*
X151285867Y-100275733D01*
X150920420Y-99975818D01*
X150503484Y-99752961D01*
X150051082Y-99615726D01*
X149698500Y-99581000D01*
X149698489Y-99581000D01*
X149580600Y-99569389D01*
X149462711Y-99581000D01*
X147542000Y-99581000D01*
X147542000Y-99244017D01*
X147465141Y-98857622D01*
X147314377Y-98493645D01*
X147098792Y-98171000D01*
X147314377Y-97848355D01*
X147465141Y-97484378D01*
X147542000Y-97097983D01*
X147542000Y-96704017D01*
X147465141Y-96317622D01*
X147314377Y-95953645D01*
X147155508Y-95715881D01*
X147384286Y-95385538D01*
X147548764Y-95006440D01*
X147569143Y-94939234D01*
X147317423Y-94615000D01*
X145796000Y-94615000D01*
X145796000Y-94635000D01*
X145288000Y-94635000D01*
X145288000Y-94615000D01*
X145268000Y-94615000D01*
X145268000Y-94107000D01*
X145288000Y-94107000D01*
X145288000Y-94087000D01*
X145796000Y-94087000D01*
X145796000Y-94107000D01*
X147317423Y-94107000D01*
X147569143Y-93782766D01*
X147548764Y-93715560D01*
X147442658Y-93471000D01*
X147823158Y-93471000D01*
X147904200Y-93478982D01*
X147985242Y-93471000D01*
X147985252Y-93471000D01*
X148227656Y-93447125D01*
X148538683Y-93352777D01*
X148825326Y-93199562D01*
X149076571Y-92993371D01*
X149128245Y-92930406D01*
X155363613Y-86695039D01*
X155426571Y-86643371D01*
X155632762Y-86392126D01*
X155785977Y-86105483D01*
X155880325Y-85794456D01*
X155904200Y-85552052D01*
X155904200Y-85552043D01*
X155912182Y-85471001D01*
X155904200Y-85389959D01*
X155904200Y-77982852D01*
X155912183Y-77901800D01*
X155898960Y-77767541D01*
X155880325Y-77578344D01*
X155785977Y-77267317D01*
X155632762Y-76980674D01*
X155426571Y-76729429D01*
X155363612Y-76677760D01*
X152785844Y-74099993D01*
X152734171Y-74037029D01*
X152482926Y-73830838D01*
X152196283Y-73677623D01*
X151885256Y-73583275D01*
X151642852Y-73559400D01*
X151642842Y-73559400D01*
X151561800Y-73551418D01*
X151480758Y-73559400D01*
X135862252Y-73559400D01*
X134791883Y-72489032D01*
X134778680Y-72472944D01*
X134623971Y-72284429D01*
X134561006Y-72232755D01*
X134015245Y-71686994D01*
X133963571Y-71624029D01*
X133712326Y-71417838D01*
X133425683Y-71264623D01*
X133114656Y-71170275D01*
X132872252Y-71146400D01*
X132872242Y-71146400D01*
X132791200Y-71138418D01*
X132710158Y-71146400D01*
X101935052Y-71146400D01*
X101854000Y-71138417D01*
X101772948Y-71146400D01*
X101530544Y-71170275D01*
X101219517Y-71264623D01*
X100932874Y-71417838D01*
X100681629Y-71624029D01*
X100629960Y-71686988D01*
X98991993Y-73324956D01*
X98929029Y-73376629D01*
X98722838Y-73627875D01*
X98569623Y-73914518D01*
X98475275Y-74225545D01*
X98451400Y-74467949D01*
X98451400Y-74467958D01*
X98443418Y-74549000D01*
X98451400Y-74630042D01*
X98451401Y-82401029D01*
X98443418Y-82482081D01*
X98475276Y-82805537D01*
X98569623Y-83116563D01*
X98650257Y-83267417D01*
X98722839Y-83403207D01*
X98929030Y-83654452D01*
X98991989Y-83706121D01*
X99859674Y-84573806D01*
X99911348Y-84636771D01*
X100154741Y-84836518D01*
X100162593Y-84842962D01*
X100208262Y-84867373D01*
X100196002Y-84907789D01*
X100171713Y-85154400D01*
X100177800Y-85435900D01*
X100492300Y-85750400D01*
X102031800Y-85750400D01*
X102031800Y-85730400D01*
X102539800Y-85730400D01*
X102539800Y-85750400D01*
X102559800Y-85750400D01*
X102559800Y-86258400D01*
X102539800Y-86258400D01*
X102539800Y-87797900D01*
X102854300Y-88112400D01*
X103135800Y-88118487D01*
X103382411Y-88094198D01*
X103582201Y-88033592D01*
X103582201Y-89130947D01*
X99746625Y-92966524D01*
X99608806Y-92993938D01*
X99253929Y-93140933D01*
X98934548Y-93354336D01*
X98662936Y-93625948D01*
X98449533Y-93945329D01*
X98302538Y-94300206D01*
X98227600Y-94676942D01*
X98227600Y-95061058D01*
X98302538Y-95437794D01*
X98449533Y-95792671D01*
X98527600Y-95909507D01*
X98527601Y-97632749D01*
X98519618Y-97713800D01*
X98551476Y-98037256D01*
X98645823Y-98348282D01*
X98773582Y-98587300D01*
X98799039Y-98634926D01*
X99005230Y-98886171D01*
X99068189Y-98937840D01*
X100878486Y-100748137D01*
X100921459Y-100964178D01*
X101072223Y-101328155D01*
X101291099Y-101655726D01*
X101569674Y-101934301D01*
X101897245Y-102153177D01*
X102261222Y-102303941D01*
X102647617Y-102380800D01*
X103041583Y-102380800D01*
X103427978Y-102303941D01*
X103791955Y-102153177D01*
X104114600Y-101937592D01*
X104437245Y-102153177D01*
X104801222Y-102303941D01*
X105187617Y-102380800D01*
X105581583Y-102380800D01*
X105967978Y-102303941D01*
X106254577Y-102185228D01*
X106372311Y-102281850D01*
X106590855Y-102398664D01*
X106827989Y-102470598D01*
X107074600Y-102494887D01*
X107356100Y-102488800D01*
X107670600Y-102174300D01*
X107670600Y-100634800D01*
X107650600Y-100634800D01*
X107650600Y-100126800D01*
X107670600Y-100126800D01*
X107670600Y-98587300D01*
X108178600Y-98587300D01*
X108178600Y-100126800D01*
X109718100Y-100126800D01*
X110032600Y-99812300D01*
X110038687Y-99530800D01*
X110014398Y-99284189D01*
X109942464Y-99047055D01*
X109825650Y-98828511D01*
X109668444Y-98636956D01*
X109476889Y-98479750D01*
X109258345Y-98362936D01*
X109021211Y-98291002D01*
X108774600Y-98266713D01*
X108493100Y-98272800D01*
X108178600Y-98587300D01*
X107670600Y-98587300D01*
X107356100Y-98272800D01*
X107237809Y-98270242D01*
X108989052Y-96519000D01*
X109297093Y-96519000D01*
X109413929Y-96597067D01*
X109768806Y-96744062D01*
X109906625Y-96771476D01*
X111010631Y-97875483D01*
X111010630Y-100680758D01*
X111002648Y-100761800D01*
X111010630Y-100842842D01*
X111010630Y-100842851D01*
X111034505Y-101085255D01*
X111128853Y-101396282D01*
X111282068Y-101682925D01*
X111488259Y-101934171D01*
X111551224Y-101985845D01*
X112503385Y-102938006D01*
X112555059Y-103000971D01*
X112806304Y-103207162D01*
X113092947Y-103360377D01*
X113171340Y-103384157D01*
X113130733Y-103444929D01*
X113101144Y-103516362D01*
X113042801Y-103510616D01*
X112961749Y-103518599D01*
X112719345Y-103542474D01*
X112408318Y-103636822D01*
X112121675Y-103790037D01*
X112062276Y-103838785D01*
X112062290Y-103838718D01*
X112068089Y-103433369D01*
X111994698Y-103034678D01*
X111844936Y-102657965D01*
X111817043Y-102605779D01*
X111413810Y-102559400D01*
X110366610Y-103606600D01*
X110380753Y-103620743D01*
X110021543Y-103979953D01*
X110007400Y-103965810D01*
X108960200Y-105013010D01*
X109006579Y-105416243D01*
X109378853Y-105576721D01*
X109775282Y-105661490D01*
X110180631Y-105667289D01*
X110217434Y-105660514D01*
X109558393Y-106319556D01*
X109495429Y-106371229D01*
X109289238Y-106622475D01*
X109136023Y-106909118D01*
X109041675Y-107220145D01*
X109017800Y-107462549D01*
X109017800Y-107462558D01*
X109009818Y-107543600D01*
X109017800Y-107624642D01*
X109017801Y-108815948D01*
X108917549Y-108916200D01*
X107808338Y-108916200D01*
X107947511Y-108580205D01*
X108020500Y-108213265D01*
X108020500Y-107839135D01*
X107947511Y-107472195D01*
X107804338Y-107126544D01*
X107614999Y-106843177D01*
X107726195Y-106731981D01*
X107491193Y-106496979D01*
X107889304Y-106456842D01*
X108044693Y-106093251D01*
X108126163Y-105706332D01*
X108130584Y-105310953D01*
X108057785Y-104922310D01*
X107910565Y-104555336D01*
X107889304Y-104515558D01*
X107491190Y-104475421D01*
X106480410Y-105486200D01*
X106494553Y-105500342D01*
X106135343Y-105859553D01*
X106121200Y-105845410D01*
X106107058Y-105859553D01*
X105747847Y-105500342D01*
X105761990Y-105486200D01*
X104751210Y-104475421D01*
X104353096Y-104515558D01*
X104197707Y-104879149D01*
X104116237Y-105266068D01*
X104111816Y-105661447D01*
X104184615Y-106050090D01*
X104331835Y-106417064D01*
X104353096Y-106456842D01*
X104751207Y-106496979D01*
X104516205Y-106731981D01*
X104627401Y-106843177D01*
X104438062Y-107126544D01*
X104294889Y-107472195D01*
X104221900Y-107839135D01*
X104221900Y-108213265D01*
X104294889Y-108580205D01*
X104438062Y-108925856D01*
X104645917Y-109236933D01*
X104705184Y-109296200D01*
X104645917Y-109355467D01*
X104438062Y-109666544D01*
X104294889Y-110012195D01*
X104221900Y-110379135D01*
X104221900Y-110753265D01*
X104294889Y-111120205D01*
X104434062Y-111456200D01*
X100188338Y-111456200D01*
X100327511Y-111120205D01*
X100400500Y-110753265D01*
X100400500Y-110379135D01*
X100327511Y-110012195D01*
X100184338Y-109666544D01*
X100151200Y-109616949D01*
X100151200Y-108975451D01*
X100184338Y-108925856D01*
X100327511Y-108580205D01*
X100400500Y-108213265D01*
X100400500Y-107839135D01*
X100327511Y-107472195D01*
X100184338Y-107126544D01*
X99994999Y-106843177D01*
X100106195Y-106731981D01*
X99871193Y-106496979D01*
X100269304Y-106456842D01*
X100424693Y-106093251D01*
X100506163Y-105706332D01*
X100510584Y-105310953D01*
X100437785Y-104922310D01*
X100290565Y-104555336D01*
X100269304Y-104515558D01*
X99871190Y-104475421D01*
X98860410Y-105486200D01*
X98874553Y-105500342D01*
X98515343Y-105859553D01*
X98501200Y-105845410D01*
X98487058Y-105859553D01*
X98127847Y-105500342D01*
X98141990Y-105486200D01*
X97131210Y-104475421D01*
X96733096Y-104515558D01*
X96577707Y-104879149D01*
X96496237Y-105266068D01*
X96491816Y-105661447D01*
X96564615Y-106050090D01*
X96711835Y-106417064D01*
X96733096Y-106456842D01*
X97131207Y-106496979D01*
X96896205Y-106731981D01*
X97007401Y-106843177D01*
X96818062Y-107126544D01*
X96674889Y-107472195D01*
X96601900Y-107839135D01*
X96601900Y-108213265D01*
X96674889Y-108580205D01*
X96818062Y-108925856D01*
X96851200Y-108975451D01*
X96851201Y-109616949D01*
X96818062Y-109666544D01*
X96674889Y-110012195D01*
X96663252Y-110070696D01*
X95766193Y-110967756D01*
X95703229Y-111019429D01*
X95497038Y-111270675D01*
X95343823Y-111557318D01*
X95249475Y-111868345D01*
X95225600Y-112110749D01*
X95225600Y-112110758D01*
X95217618Y-112191800D01*
X95225600Y-112272842D01*
X95225601Y-117444748D01*
X95217618Y-117525800D01*
X95249476Y-117849256D01*
X95343823Y-118160282D01*
X95462739Y-118382755D01*
X95497039Y-118446926D01*
X95703230Y-118698171D01*
X95766188Y-118749839D01*
X96395524Y-119379176D01*
X96422938Y-119516994D01*
X96569933Y-119871871D01*
X96783336Y-120191252D01*
X97054948Y-120462864D01*
X97374329Y-120676267D01*
X97729206Y-120823262D01*
X98105942Y-120898200D01*
X98490058Y-120898200D01*
X98756200Y-120845261D01*
X98756201Y-124258351D01*
X98589093Y-124395493D01*
X98445384Y-124570603D01*
X98338598Y-124770385D01*
X98272840Y-124987161D01*
X98250636Y-125212600D01*
X98250636Y-127212600D01*
X98272840Y-127438039D01*
X98338598Y-127654815D01*
X98445384Y-127854597D01*
X98589093Y-128029707D01*
X98764203Y-128173416D01*
X98963985Y-128280202D01*
X99180761Y-128345960D01*
X99406200Y-128368164D01*
X101406200Y-128368164D01*
X101631639Y-128345960D01*
X101848415Y-128280202D01*
X102048197Y-128173416D01*
X102223307Y-128029707D01*
X102312377Y-127921175D01*
X102327638Y-127949727D01*
X102533829Y-128200972D01*
X102596788Y-128252641D01*
X103647358Y-129303211D01*
X103699027Y-129366171D01*
X103950272Y-129572362D01*
X104236915Y-129725577D01*
X104547942Y-129819925D01*
X104790346Y-129843800D01*
X104790355Y-129843800D01*
X104871397Y-129851782D01*
X104952439Y-129843800D01*
X109602758Y-129843800D01*
X109683800Y-129851782D01*
X109764842Y-129843800D01*
X109764852Y-129843800D01*
X110007256Y-129819925D01*
X110318283Y-129725577D01*
X110604926Y-129572362D01*
X110856171Y-129366171D01*
X110907845Y-129303206D01*
X111002251Y-129208800D01*
X112360788Y-129208800D01*
X112476785Y-129270802D01*
X112693561Y-129336560D01*
X112919000Y-129358764D01*
X114919000Y-129358764D01*
X115144439Y-129336560D01*
X115361215Y-129270802D01*
X115560997Y-129164016D01*
X115736107Y-129020307D01*
X115879816Y-128845197D01*
X115986602Y-128645415D01*
X116052360Y-128428639D01*
X116074564Y-128203200D01*
X116074564Y-127034073D01*
X127502937Y-127034073D01*
X127683067Y-127549297D01*
X128243206Y-127819885D01*
X128845371Y-127975996D01*
X129466420Y-128011631D01*
X130082489Y-127925420D01*
X130669901Y-127720678D01*
X130895539Y-127600072D01*
X141125538Y-127600072D01*
X141196433Y-128023558D01*
X141602931Y-128204097D01*
X142036841Y-128301862D01*
X142481486Y-128313097D01*
X142919779Y-128237370D01*
X143334877Y-128077592D01*
X143435967Y-128023558D01*
X143506862Y-127600072D01*
X142316200Y-126409410D01*
X141125538Y-127600072D01*
X130895539Y-127600072D01*
X130990533Y-127549297D01*
X131170663Y-127034073D01*
X129336800Y-125200210D01*
X127502937Y-127034073D01*
X116074564Y-127034073D01*
X116074564Y-126203200D01*
X116052360Y-125977761D01*
X115986602Y-125760985D01*
X115879816Y-125561203D01*
X115736107Y-125386093D01*
X115560997Y-125242384D01*
X115361215Y-125135598D01*
X115144439Y-125069840D01*
X114919000Y-125047636D01*
X112919000Y-125047636D01*
X112693561Y-125069840D01*
X112476785Y-125135598D01*
X112277003Y-125242384D01*
X112101893Y-125386093D01*
X111958184Y-125561203D01*
X111851398Y-125760985D01*
X111806559Y-125908800D01*
X110399852Y-125908800D01*
X110318800Y-125900817D01*
X110237748Y-125908800D01*
X109995344Y-125932675D01*
X109684317Y-126027023D01*
X109397674Y-126180238D01*
X109146429Y-126386429D01*
X109094755Y-126449394D01*
X109000349Y-126543800D01*
X107646182Y-126543800D01*
X107657862Y-126491959D01*
X107669097Y-126047314D01*
X107593370Y-125609021D01*
X107433592Y-125193923D01*
X107379558Y-125092833D01*
X106956072Y-125021938D01*
X105765410Y-126212600D01*
X105779553Y-126226743D01*
X105508672Y-126497623D01*
X105356199Y-126345150D01*
X105356199Y-125875106D01*
X105392058Y-125839248D01*
X105406200Y-125853390D01*
X106288970Y-124970620D01*
X126166169Y-124970620D01*
X126252380Y-125586689D01*
X126457122Y-126174101D01*
X126628503Y-126494733D01*
X127143727Y-126674863D01*
X128977590Y-124841000D01*
X129696010Y-124841000D01*
X131529873Y-126674863D01*
X132045097Y-126494733D01*
X132179993Y-126215486D01*
X140053303Y-126215486D01*
X140129030Y-126653779D01*
X140288808Y-127068877D01*
X140342842Y-127169967D01*
X140766328Y-127240862D01*
X141956990Y-126050200D01*
X142675410Y-126050200D01*
X143866072Y-127240862D01*
X144289558Y-127169967D01*
X144470097Y-126763469D01*
X144567862Y-126329559D01*
X144579097Y-125884914D01*
X144503370Y-125446621D01*
X144343592Y-125031523D01*
X144289558Y-124930433D01*
X143866072Y-124859538D01*
X142675410Y-126050200D01*
X141956990Y-126050200D01*
X140766328Y-124859538D01*
X140342842Y-124930433D01*
X140162303Y-125336931D01*
X140064538Y-125770841D01*
X140053303Y-126215486D01*
X132179993Y-126215486D01*
X132315685Y-125934594D01*
X132471796Y-125332429D01*
X132507431Y-124711380D01*
X132477897Y-124500328D01*
X141125538Y-124500328D01*
X142316200Y-125690990D01*
X143506862Y-124500328D01*
X143435967Y-124076842D01*
X143029469Y-123896303D01*
X142595559Y-123798538D01*
X142150914Y-123787303D01*
X141712621Y-123863030D01*
X141297523Y-124022808D01*
X141196433Y-124076842D01*
X141125538Y-124500328D01*
X132477897Y-124500328D01*
X132421220Y-124095311D01*
X132216478Y-123507899D01*
X132045097Y-123187267D01*
X131529873Y-123007137D01*
X129696010Y-124841000D01*
X128977590Y-124841000D01*
X127143727Y-123007137D01*
X126628503Y-123187267D01*
X126357915Y-123747406D01*
X126201804Y-124349571D01*
X126166169Y-124970620D01*
X106288970Y-124970620D01*
X106596862Y-124662728D01*
X106525967Y-124239242D01*
X106119469Y-124058703D01*
X105761584Y-123978067D01*
X105986579Y-123753072D01*
X112728338Y-123753072D01*
X112799233Y-124176558D01*
X113205731Y-124357097D01*
X113639641Y-124454862D01*
X114084286Y-124466097D01*
X114522579Y-124390370D01*
X114937677Y-124230592D01*
X115038767Y-124176558D01*
X115109662Y-123753072D01*
X113919000Y-122562410D01*
X112728338Y-123753072D01*
X105986579Y-123753072D01*
X107371166Y-122368486D01*
X111656103Y-122368486D01*
X111731830Y-122806779D01*
X111891608Y-123221877D01*
X111945642Y-123322967D01*
X112369128Y-123393862D01*
X113559790Y-122203200D01*
X114278210Y-122203200D01*
X115468872Y-123393862D01*
X115892358Y-123322967D01*
X116072897Y-122916469D01*
X116133402Y-122647927D01*
X127502937Y-122647927D01*
X129336800Y-124481790D01*
X131170663Y-122647927D01*
X130990533Y-122132703D01*
X130430394Y-121862115D01*
X129828229Y-121706004D01*
X129207180Y-121670369D01*
X128591111Y-121756580D01*
X128003699Y-121961322D01*
X127683067Y-122132703D01*
X127502937Y-122647927D01*
X116133402Y-122647927D01*
X116170662Y-122482559D01*
X116181897Y-122037914D01*
X116106170Y-121599621D01*
X115946392Y-121184523D01*
X115892358Y-121083433D01*
X115468872Y-121012538D01*
X114278210Y-122203200D01*
X113559790Y-122203200D01*
X112369128Y-121012538D01*
X111945642Y-121083433D01*
X111765103Y-121489931D01*
X111667338Y-121923841D01*
X111656103Y-122368486D01*
X107371166Y-122368486D01*
X108888977Y-120850676D01*
X109026794Y-120823262D01*
X109381671Y-120676267D01*
X109498507Y-120598200D01*
X112737567Y-120598200D01*
X112728338Y-120653328D01*
X113919000Y-121843990D01*
X115109662Y-120653328D01*
X115100433Y-120598200D01*
X122709117Y-120598200D01*
X122714144Y-120599725D01*
X122956548Y-120623600D01*
X122956558Y-120623600D01*
X123037599Y-120631582D01*
X123118641Y-120623600D01*
X148839158Y-120623600D01*
X148920200Y-120631582D01*
X149001242Y-120623600D01*
X149001252Y-120623600D01*
X149243656Y-120599725D01*
X149554683Y-120505377D01*
X149841326Y-120352162D01*
X150092571Y-120145971D01*
X150144244Y-120083007D01*
X153921652Y-116305600D01*
X154483993Y-116305600D01*
X154399623Y-116463445D01*
X154290750Y-116822351D01*
X154253988Y-117195600D01*
X154290750Y-117568849D01*
X154399623Y-117927755D01*
X154576422Y-118258524D01*
X154746366Y-118465600D01*
X154576422Y-118672676D01*
X154399623Y-119003445D01*
X154290750Y-119362351D01*
X154253988Y-119735600D01*
X154290750Y-120108849D01*
X154399623Y-120467755D01*
X154521200Y-120695210D01*
X154521200Y-121995487D01*
X152932688Y-123584000D01*
X152822689Y-123584000D01*
X152704799Y-123572389D01*
X152586910Y-123584000D01*
X152586900Y-123584000D01*
X152234318Y-123618726D01*
X152097597Y-123660200D01*
X147278300Y-123660200D01*
X146925718Y-123694926D01*
X146473316Y-123832161D01*
X146056380Y-124055018D01*
X145690933Y-124354933D01*
X145391018Y-124720380D01*
X145168161Y-125137316D01*
X145030926Y-125589718D01*
X144984588Y-126060200D01*
X145030926Y-126530682D01*
X145168161Y-126983084D01*
X145391018Y-127400020D01*
X145690933Y-127765467D01*
X146056380Y-128065382D01*
X146473316Y-128288239D01*
X146925718Y-128425474D01*
X147278300Y-128460200D01*
X152510711Y-128460200D01*
X152628600Y-128471811D01*
X152746489Y-128460200D01*
X152746500Y-128460200D01*
X153099082Y-128425474D01*
X153235803Y-128384000D01*
X153808911Y-128384000D01*
X153926800Y-128395611D01*
X154044689Y-128384000D01*
X154044700Y-128384000D01*
X154397282Y-128349274D01*
X154849684Y-128212039D01*
X155266620Y-127989182D01*
X155632067Y-127689267D01*
X155707224Y-127597688D01*
X158534893Y-124770020D01*
X158626467Y-124694867D01*
X158701620Y-124603293D01*
X158701624Y-124603289D01*
X158926382Y-124329421D01*
X159088868Y-124025430D01*
X159149239Y-123912484D01*
X159286474Y-123460082D01*
X159321200Y-123107500D01*
X159321200Y-123107491D01*
X159332811Y-122989601D01*
X159321200Y-122871711D01*
X159321200Y-120695210D01*
X159442777Y-120467755D01*
X159551650Y-120108849D01*
X159588412Y-119735600D01*
X159551650Y-119362351D01*
X159495659Y-119177773D01*
X159751970Y-119040772D01*
X160117417Y-118740857D01*
X160179116Y-118665676D01*
X160350326Y-118574162D01*
X160601571Y-118367971D01*
X160653245Y-118305006D01*
X160748406Y-118209845D01*
X160811371Y-118158171D01*
X161017562Y-117906926D01*
X161112453Y-117729399D01*
X161377180Y-117464672D01*
X161361008Y-130979460D01*
X95130069Y-130881340D01*
X95140779Y-104116210D01*
X97490421Y-104116210D01*
X98501200Y-105126990D01*
X99511979Y-104116210D01*
X105110421Y-104116210D01*
X106121200Y-105126990D01*
X107131979Y-104116210D01*
X107098066Y-103779831D01*
X107946711Y-103779831D01*
X108020102Y-104178522D01*
X108169864Y-104555235D01*
X108197757Y-104607421D01*
X108600990Y-104653800D01*
X109648190Y-103606600D01*
X109634048Y-103592458D01*
X109993258Y-103233248D01*
X110007400Y-103247390D01*
X111054600Y-102200190D01*
X111008221Y-101796957D01*
X110635947Y-101636479D01*
X110239518Y-101551710D01*
X109992930Y-101548182D01*
X110014398Y-101477411D01*
X110038687Y-101230800D01*
X110032600Y-100949300D01*
X109718100Y-100634800D01*
X108178600Y-100634800D01*
X108178600Y-102174300D01*
X108493100Y-102488800D01*
X108531211Y-102489624D01*
X108600987Y-102559400D01*
X108197757Y-102605779D01*
X108037279Y-102978053D01*
X107952510Y-103374482D01*
X107946711Y-103779831D01*
X107098066Y-103779831D01*
X107091842Y-103718096D01*
X106728251Y-103562707D01*
X106341332Y-103481237D01*
X105945953Y-103476816D01*
X105557310Y-103549615D01*
X105190336Y-103696835D01*
X105150558Y-103718096D01*
X105110421Y-104116210D01*
X99511979Y-104116210D01*
X99471842Y-103718096D01*
X99108251Y-103562707D01*
X98721332Y-103481237D01*
X98325953Y-103476816D01*
X97937310Y-103549615D01*
X97570336Y-103696835D01*
X97530558Y-103718096D01*
X97490421Y-104116210D01*
X95140779Y-104116210D01*
X95147687Y-86854400D01*
X100171713Y-86854400D01*
X100196002Y-87101011D01*
X100267936Y-87338145D01*
X100384750Y-87556689D01*
X100541956Y-87748244D01*
X100733511Y-87905450D01*
X100952055Y-88022264D01*
X101189189Y-88094198D01*
X101435800Y-88118487D01*
X101717300Y-88112400D01*
X102031800Y-87797900D01*
X102031800Y-86258400D01*
X100492300Y-86258400D01*
X100177800Y-86572900D01*
X100171713Y-86854400D01*
X95147687Y-86854400D01*
X95154531Y-69753262D01*
X161434391Y-69655143D01*
X161385644Y-110391931D01*
G36*
X104471200Y-114774458D02*
G01*
X104463218Y-114855500D01*
X104471200Y-114936542D01*
X104471200Y-114936551D01*
X104495075Y-115178955D01*
X104589423Y-115489982D01*
X104742638Y-115776625D01*
X104948829Y-116027871D01*
X105011794Y-116079545D01*
X105662455Y-116730206D01*
X105714129Y-116793171D01*
X105965374Y-116999362D01*
X106252017Y-117152577D01*
X106563044Y-117246925D01*
X106886500Y-117278783D01*
X106967552Y-117270800D01*
X107458500Y-117270800D01*
X107214948Y-117433536D01*
X106943336Y-117705148D01*
X106729933Y-118024529D01*
X106582938Y-118379406D01*
X106555524Y-118517223D01*
X102596792Y-122475957D01*
X102533828Y-122527630D01*
X102327637Y-122778876D01*
X102174422Y-123065519D01*
X102080074Y-123376546D01*
X102056200Y-123618940D01*
X102056200Y-116151922D01*
X102064183Y-116070870D01*
X102032325Y-115747414D01*
X101937977Y-115436387D01*
X101784762Y-115149744D01*
X101701584Y-115048391D01*
X101578571Y-114898499D01*
X101515613Y-114846831D01*
X101424982Y-114756200D01*
X104471200Y-114756200D01*
X104471200Y-114774458D01*
G37*
X104471200Y-114774458D02*
X104463218Y-114855500D01*
X104471200Y-114936542D01*
X104471200Y-114936551D01*
X104495075Y-115178955D01*
X104589423Y-115489982D01*
X104742638Y-115776625D01*
X104948829Y-116027871D01*
X105011794Y-116079545D01*
X105662455Y-116730206D01*
X105714129Y-116793171D01*
X105965374Y-116999362D01*
X106252017Y-117152577D01*
X106563044Y-117246925D01*
X106886500Y-117278783D01*
X106967552Y-117270800D01*
X107458500Y-117270800D01*
X107214948Y-117433536D01*
X106943336Y-117705148D01*
X106729933Y-118024529D01*
X106582938Y-118379406D01*
X106555524Y-118517223D01*
X102596792Y-122475957D01*
X102533828Y-122527630D01*
X102327637Y-122778876D01*
X102174422Y-123065519D01*
X102080074Y-123376546D01*
X102056200Y-123618940D01*
X102056200Y-116151922D01*
X102064183Y-116070870D01*
X102032325Y-115747414D01*
X101937977Y-115436387D01*
X101784762Y-115149744D01*
X101701584Y-115048391D01*
X101578571Y-114898499D01*
X101515613Y-114846831D01*
X101424982Y-114756200D01*
X104471200Y-114756200D01*
X104471200Y-114774458D01*
G36*
X138328400Y-94589600D02*
G01*
X138348400Y-94589600D01*
X138348400Y-95097600D01*
X138328400Y-95097600D01*
X138328400Y-96621748D01*
X138652635Y-96870750D01*
X139037002Y-96718991D01*
X139384377Y-96495162D01*
X139497801Y-96385455D01*
X139497801Y-96769148D01*
X139489818Y-96850200D01*
X139521676Y-97173656D01*
X139616023Y-97484682D01*
X139738490Y-97713800D01*
X139769239Y-97771326D01*
X139975430Y-98022571D01*
X140038389Y-98074240D01*
X142514564Y-100550417D01*
X142566229Y-100613371D01*
X142629182Y-100665035D01*
X142629185Y-100665038D01*
X142676973Y-100704256D01*
X142817474Y-100819562D01*
X143104117Y-100972777D01*
X143323934Y-101039457D01*
X143313961Y-101058116D01*
X143176726Y-101510518D01*
X143130388Y-101981000D01*
X143176726Y-102451482D01*
X143313961Y-102903884D01*
X143536818Y-103320820D01*
X143545177Y-103331006D01*
X143536819Y-103341190D01*
X143313962Y-103758126D01*
X143176727Y-104210528D01*
X143142001Y-104563110D01*
X143142000Y-108821391D01*
X143100526Y-108958113D01*
X143065800Y-109310695D01*
X143065800Y-109310706D01*
X143054189Y-109428595D01*
X143065800Y-109546484D01*
X143065800Y-110217598D01*
X142762925Y-110670883D01*
X142533009Y-111225948D01*
X142415800Y-111815201D01*
X142415800Y-112415999D01*
X142533009Y-113005252D01*
X142762925Y-113560317D01*
X143096710Y-114059862D01*
X143521538Y-114484690D01*
X144021083Y-114818475D01*
X144576148Y-115048391D01*
X145165401Y-115165600D01*
X145766199Y-115165600D01*
X146355452Y-115048391D01*
X146910517Y-114818475D01*
X147410062Y-114484690D01*
X147834890Y-114059862D01*
X148168675Y-113560317D01*
X148398591Y-113005252D01*
X148515800Y-112415999D01*
X148515800Y-111815201D01*
X148398591Y-111225948D01*
X148168675Y-110670883D01*
X147865800Y-110217598D01*
X147865800Y-109959598D01*
X147907274Y-109822877D01*
X147942000Y-109470295D01*
X147942000Y-109470285D01*
X147953611Y-109352396D01*
X147942000Y-109234506D01*
X147942000Y-104563110D01*
X147924064Y-104381000D01*
X148586488Y-104381000D01*
X156957087Y-112751600D01*
X156073669Y-112751600D01*
X155793951Y-112779150D01*
X155435045Y-112888023D01*
X155215073Y-113005600D01*
X153319241Y-113005600D01*
X153238199Y-112997618D01*
X153157157Y-113005600D01*
X153157148Y-113005600D01*
X152914744Y-113029475D01*
X152603717Y-113123823D01*
X152317074Y-113277038D01*
X152065829Y-113483229D01*
X152014160Y-113546188D01*
X148236749Y-117323600D01*
X123340683Y-117323600D01*
X123335656Y-117322075D01*
X123093252Y-117298200D01*
X123093242Y-117298200D01*
X123012200Y-117290218D01*
X122931158Y-117298200D01*
X109498507Y-117298200D01*
X109457500Y-117270800D01*
X112009158Y-117270800D01*
X112090200Y-117278782D01*
X112171242Y-117270800D01*
X112171252Y-117270800D01*
X112413656Y-117246925D01*
X112724683Y-117152577D01*
X113011326Y-116999362D01*
X113262571Y-116793171D01*
X113314245Y-116730206D01*
X113840451Y-116204000D01*
X128112758Y-116204000D01*
X128193799Y-116211982D01*
X128274841Y-116204000D01*
X131821158Y-116204000D01*
X131902200Y-116211982D01*
X131983242Y-116204000D01*
X131983252Y-116204000D01*
X132225656Y-116180125D01*
X132536683Y-116085777D01*
X132823326Y-115932562D01*
X133074571Y-115726371D01*
X133126245Y-115663406D01*
X133646608Y-115143043D01*
X133709571Y-115091371D01*
X133915762Y-114840126D01*
X134068977Y-114553483D01*
X134163325Y-114242456D01*
X134187200Y-114000052D01*
X134187200Y-114000051D01*
X134195183Y-113919000D01*
X134187200Y-113837948D01*
X134187200Y-97051051D01*
X136140650Y-95097602D01*
X136298975Y-95097602D01*
X136047257Y-95421834D01*
X136067636Y-95489040D01*
X136232114Y-95868138D01*
X136467390Y-96207864D01*
X136764423Y-96495162D01*
X137111798Y-96718991D01*
X137496165Y-96870750D01*
X137820400Y-96621748D01*
X137820400Y-95097600D01*
X137800400Y-95097600D01*
X137800400Y-94589600D01*
X137820400Y-94589600D01*
X137820400Y-94569600D01*
X138328400Y-94569600D01*
X138328400Y-94589600D01*
G37*
X138328400Y-94589600D02*
X138348400Y-94589600D01*
X138348400Y-95097600D01*
X138328400Y-95097600D01*
X138328400Y-96621748D01*
X138652635Y-96870750D01*
X139037002Y-96718991D01*
X139384377Y-96495162D01*
X139497801Y-96385455D01*
X139497801Y-96769148D01*
X139489818Y-96850200D01*
X139521676Y-97173656D01*
X139616023Y-97484682D01*
X139738490Y-97713800D01*
X139769239Y-97771326D01*
X139975430Y-98022571D01*
X140038389Y-98074240D01*
X142514564Y-100550417D01*
X142566229Y-100613371D01*
X142629182Y-100665035D01*
X142629185Y-100665038D01*
X142676973Y-100704256D01*
X142817474Y-100819562D01*
X143104117Y-100972777D01*
X143323934Y-101039457D01*
X143313961Y-101058116D01*
X143176726Y-101510518D01*
X143130388Y-101981000D01*
X143176726Y-102451482D01*
X143313961Y-102903884D01*
X143536818Y-103320820D01*
X143545177Y-103331006D01*
X143536819Y-103341190D01*
X143313962Y-103758126D01*
X143176727Y-104210528D01*
X143142001Y-104563110D01*
X143142000Y-108821391D01*
X143100526Y-108958113D01*
X143065800Y-109310695D01*
X143065800Y-109310706D01*
X143054189Y-109428595D01*
X143065800Y-109546484D01*
X143065800Y-110217598D01*
X142762925Y-110670883D01*
X142533009Y-111225948D01*
X142415800Y-111815201D01*
X142415800Y-112415999D01*
X142533009Y-113005252D01*
X142762925Y-113560317D01*
X143096710Y-114059862D01*
X143521538Y-114484690D01*
X144021083Y-114818475D01*
X144576148Y-115048391D01*
X145165401Y-115165600D01*
X145766199Y-115165600D01*
X146355452Y-115048391D01*
X146910517Y-114818475D01*
X147410062Y-114484690D01*
X147834890Y-114059862D01*
X148168675Y-113560317D01*
X148398591Y-113005252D01*
X148515800Y-112415999D01*
X148515800Y-111815201D01*
X148398591Y-111225948D01*
X148168675Y-110670883D01*
X147865800Y-110217598D01*
X147865800Y-109959598D01*
X147907274Y-109822877D01*
X147942000Y-109470295D01*
X147942000Y-109470285D01*
X147953611Y-109352396D01*
X147942000Y-109234506D01*
X147942000Y-104563110D01*
X147924064Y-104381000D01*
X148586488Y-104381000D01*
X156957087Y-112751600D01*
X156073669Y-112751600D01*
X155793951Y-112779150D01*
X155435045Y-112888023D01*
X155215073Y-113005600D01*
X153319241Y-113005600D01*
X153238199Y-112997618D01*
X153157157Y-113005600D01*
X153157148Y-113005600D01*
X152914744Y-113029475D01*
X152603717Y-113123823D01*
X152317074Y-113277038D01*
X152065829Y-113483229D01*
X152014160Y-113546188D01*
X148236749Y-117323600D01*
X123340683Y-117323600D01*
X123335656Y-117322075D01*
X123093252Y-117298200D01*
X123093242Y-117298200D01*
X123012200Y-117290218D01*
X122931158Y-117298200D01*
X109498507Y-117298200D01*
X109457500Y-117270800D01*
X112009158Y-117270800D01*
X112090200Y-117278782D01*
X112171242Y-117270800D01*
X112171252Y-117270800D01*
X112413656Y-117246925D01*
X112724683Y-117152577D01*
X113011326Y-116999362D01*
X113262571Y-116793171D01*
X113314245Y-116730206D01*
X113840451Y-116204000D01*
X128112758Y-116204000D01*
X128193799Y-116211982D01*
X128274841Y-116204000D01*
X131821158Y-116204000D01*
X131902200Y-116211982D01*
X131983242Y-116204000D01*
X131983252Y-116204000D01*
X132225656Y-116180125D01*
X132536683Y-116085777D01*
X132823326Y-115932562D01*
X133074571Y-115726371D01*
X133126245Y-115663406D01*
X133646608Y-115143043D01*
X133709571Y-115091371D01*
X133915762Y-114840126D01*
X134068977Y-114553483D01*
X134163325Y-114242456D01*
X134187200Y-114000052D01*
X134187200Y-114000051D01*
X134195183Y-113919000D01*
X134187200Y-113837948D01*
X134187200Y-97051051D01*
X136140650Y-95097602D01*
X136298975Y-95097602D01*
X136047257Y-95421834D01*
X136067636Y-95489040D01*
X136232114Y-95868138D01*
X136467390Y-96207864D01*
X136764423Y-96495162D01*
X137111798Y-96718991D01*
X137496165Y-96870750D01*
X137820400Y-96621748D01*
X137820400Y-95097600D01*
X137800400Y-95097600D01*
X137800400Y-94589600D01*
X137820400Y-94589600D01*
X137820400Y-94569600D01*
X138328400Y-94569600D01*
X138328400Y-94589600D01*
G36*
X132111315Y-74449966D02*
G01*
X132279229Y-74654571D01*
X132342193Y-74706244D01*
X133954760Y-76318812D01*
X134006429Y-76381771D01*
X134227086Y-76562859D01*
X134257674Y-76587962D01*
X134544317Y-76741177D01*
X134855344Y-76835525D01*
X135178800Y-76867383D01*
X135259852Y-76859400D01*
X138418736Y-76859400D01*
X138357750Y-76933711D01*
X138240936Y-77152255D01*
X138169002Y-77389389D01*
X138144713Y-77636000D01*
X138150800Y-77917500D01*
X138465300Y-78232000D01*
X140004800Y-78232000D01*
X140004800Y-78212000D01*
X140512800Y-78212000D01*
X140512800Y-78232000D01*
X140532800Y-78232000D01*
X140532800Y-78740000D01*
X140512800Y-78740000D01*
X140512800Y-80279500D01*
X140827300Y-80594000D01*
X141108800Y-80600087D01*
X141355411Y-80575798D01*
X141592545Y-80503864D01*
X141811089Y-80387050D01*
X141928823Y-80290428D01*
X142215422Y-80409141D01*
X142601817Y-80486000D01*
X142995783Y-80486000D01*
X143382178Y-80409141D01*
X143746155Y-80258377D01*
X144068800Y-80042792D01*
X144391445Y-80258377D01*
X144755422Y-80409141D01*
X145141817Y-80486000D01*
X145535783Y-80486000D01*
X145922178Y-80409141D01*
X146286155Y-80258377D01*
X146608800Y-80042792D01*
X146931445Y-80258377D01*
X147295422Y-80409141D01*
X147681817Y-80486000D01*
X148075783Y-80486000D01*
X148462178Y-80409141D01*
X148768800Y-80282134D01*
X148768801Y-81101775D01*
X148398338Y-81349310D01*
X147973510Y-81774138D01*
X147639725Y-82273683D01*
X147409809Y-82828748D01*
X147304843Y-83356451D01*
X147230191Y-82981148D01*
X147000275Y-82426083D01*
X146666490Y-81926538D01*
X146241662Y-81501710D01*
X145742117Y-81167925D01*
X145187052Y-80938009D01*
X144597799Y-80820800D01*
X143997001Y-80820800D01*
X143407748Y-80938009D01*
X142852683Y-81167925D01*
X142353138Y-81501710D01*
X141928310Y-81926538D01*
X141612889Y-82398600D01*
X131840814Y-82398600D01*
X131973862Y-82077394D01*
X132048800Y-81700658D01*
X132048800Y-81316542D01*
X131973862Y-80939806D01*
X131826867Y-80584929D01*
X131648652Y-80318211D01*
X131671614Y-80295870D01*
X131900330Y-79963526D01*
X132059815Y-79592948D01*
X132076187Y-79538953D01*
X131914206Y-79336000D01*
X138144713Y-79336000D01*
X138169002Y-79582611D01*
X138240936Y-79819745D01*
X138357750Y-80038289D01*
X138514956Y-80229844D01*
X138706511Y-80387050D01*
X138925055Y-80503864D01*
X139162189Y-80575798D01*
X139408800Y-80600087D01*
X139690300Y-80594000D01*
X140004800Y-80279500D01*
X140004800Y-78740000D01*
X138465300Y-78740000D01*
X138150800Y-79054500D01*
X138144713Y-79336000D01*
X131914206Y-79336000D01*
X131823699Y-79222600D01*
X130352800Y-79222600D01*
X130352800Y-79242600D01*
X129844800Y-79242600D01*
X129844800Y-79222600D01*
X128373901Y-79222600D01*
X128121413Y-79538953D01*
X128137785Y-79592948D01*
X128297270Y-79963526D01*
X128525986Y-80295870D01*
X128548948Y-80318211D01*
X128370733Y-80584929D01*
X128223738Y-80939806D01*
X128148800Y-81316542D01*
X128148800Y-81700658D01*
X128223738Y-82077394D01*
X128354190Y-82392333D01*
X128290558Y-82398600D01*
X128290548Y-82398600D01*
X128048144Y-82422475D01*
X127737117Y-82516823D01*
X127450474Y-82670038D01*
X127199229Y-82876229D01*
X127147555Y-82939194D01*
X126957394Y-83129355D01*
X126894429Y-83181029D01*
X126688238Y-83432275D01*
X126535023Y-83718918D01*
X126440675Y-84029945D01*
X126416800Y-84272349D01*
X126416800Y-84272358D01*
X126408818Y-84353400D01*
X126416800Y-84434442D01*
X126416801Y-112904000D01*
X116590293Y-112904000D01*
X116733862Y-112557394D01*
X116808800Y-112180658D01*
X116808800Y-111796542D01*
X116733862Y-111419806D01*
X116586867Y-111064929D01*
X116373464Y-110745548D01*
X116346516Y-110718600D01*
X116373464Y-110691652D01*
X116586867Y-110372271D01*
X116733862Y-110017394D01*
X116808800Y-109640658D01*
X116808800Y-109256542D01*
X116733862Y-108879806D01*
X116586867Y-108524929D01*
X116373464Y-108205548D01*
X116346516Y-108178600D01*
X116373464Y-108151652D01*
X116586867Y-107832271D01*
X116733862Y-107477394D01*
X116808800Y-107100658D01*
X116808800Y-106716542D01*
X116733862Y-106339806D01*
X116586867Y-105984929D01*
X116373464Y-105665548D01*
X116346516Y-105638600D01*
X116373464Y-105611652D01*
X116586867Y-105292271D01*
X116733862Y-104937394D01*
X116808800Y-104560658D01*
X116808800Y-104176542D01*
X116733862Y-103799806D01*
X116586867Y-103444929D01*
X116373464Y-103125548D01*
X116346516Y-103098600D01*
X116373464Y-103071652D01*
X116586867Y-102752271D01*
X116733862Y-102397394D01*
X116808800Y-102020658D01*
X116808800Y-101636542D01*
X116733862Y-101259806D01*
X116586867Y-100904929D01*
X116373464Y-100585548D01*
X116346516Y-100558600D01*
X116373464Y-100531652D01*
X116586867Y-100212271D01*
X116733862Y-99857394D01*
X116808800Y-99480658D01*
X116808800Y-99096542D01*
X116733862Y-98719806D01*
X116586867Y-98364929D01*
X116373464Y-98045548D01*
X116346516Y-98018600D01*
X116373464Y-97991652D01*
X116586867Y-97672271D01*
X116733862Y-97317394D01*
X116808800Y-96940658D01*
X116808800Y-96556542D01*
X116733862Y-96179806D01*
X116586867Y-95824929D01*
X116373464Y-95505548D01*
X116346516Y-95478600D01*
X116373464Y-95451652D01*
X116586867Y-95132271D01*
X116733862Y-94777394D01*
X116808800Y-94400658D01*
X116808800Y-94016542D01*
X116733862Y-93639806D01*
X116586867Y-93284929D01*
X116373464Y-92965548D01*
X116346516Y-92938600D01*
X116373464Y-92911652D01*
X116586867Y-92592271D01*
X116733862Y-92237394D01*
X116808800Y-91860658D01*
X116808800Y-91476542D01*
X116733862Y-91099806D01*
X116586867Y-90744929D01*
X116373464Y-90425548D01*
X116346516Y-90398600D01*
X116373464Y-90371652D01*
X116586867Y-90052271D01*
X116733862Y-89697394D01*
X116808800Y-89320658D01*
X116808800Y-88936542D01*
X116733862Y-88559806D01*
X116586867Y-88204929D01*
X116373464Y-87885548D01*
X116346516Y-87858600D01*
X116373464Y-87831652D01*
X116586867Y-87512271D01*
X116733862Y-87157394D01*
X116808800Y-86780658D01*
X116808800Y-86396542D01*
X116733862Y-86019806D01*
X116586867Y-85664929D01*
X116408652Y-85398211D01*
X116431614Y-85375870D01*
X116660330Y-85043526D01*
X116819815Y-84672948D01*
X116836187Y-84618953D01*
X116583699Y-84302600D01*
X115112800Y-84302600D01*
X115112800Y-84322600D01*
X114604800Y-84322600D01*
X114604800Y-84302600D01*
X114584800Y-84302600D01*
X114584800Y-83794600D01*
X114604800Y-83794600D01*
X114604800Y-83774600D01*
X115112800Y-83774600D01*
X115112800Y-83794600D01*
X116583699Y-83794600D01*
X116836187Y-83478247D01*
X116819815Y-83424252D01*
X116660330Y-83053674D01*
X116431614Y-82721330D01*
X116408652Y-82698989D01*
X116586867Y-82432271D01*
X116733862Y-82077394D01*
X116808800Y-81700658D01*
X116808800Y-81316542D01*
X116733862Y-80939806D01*
X116586867Y-80584929D01*
X116373464Y-80265548D01*
X116346516Y-80238600D01*
X116373464Y-80211652D01*
X116586867Y-79892271D01*
X116733862Y-79537394D01*
X116808800Y-79160658D01*
X116808800Y-78776542D01*
X116733862Y-78399806D01*
X116733217Y-78398247D01*
X128121413Y-78398247D01*
X128373901Y-78714600D01*
X129844800Y-78714600D01*
X129844800Y-78694600D01*
X130352800Y-78694600D01*
X130352800Y-78714600D01*
X131823699Y-78714600D01*
X132076187Y-78398247D01*
X132059815Y-78344252D01*
X131900330Y-77973674D01*
X131671614Y-77641330D01*
X131648652Y-77618989D01*
X131826867Y-77352271D01*
X131973862Y-76997394D01*
X132048800Y-76620658D01*
X132048800Y-76236542D01*
X131973862Y-75859806D01*
X131826867Y-75504929D01*
X131613464Y-75185548D01*
X131341852Y-74913936D01*
X131022471Y-74700533D01*
X130667594Y-74553538D01*
X130290858Y-74478600D01*
X129906742Y-74478600D01*
X129530006Y-74553538D01*
X129175129Y-74700533D01*
X128855748Y-74913936D01*
X128584136Y-75185548D01*
X128370733Y-75504929D01*
X128223738Y-75859806D01*
X128148800Y-76236542D01*
X128148800Y-76620658D01*
X128223738Y-76997394D01*
X128370733Y-77352271D01*
X128548948Y-77618989D01*
X128525986Y-77641330D01*
X128297270Y-77973674D01*
X128137785Y-78344252D01*
X128121413Y-78398247D01*
X116733217Y-78398247D01*
X116586867Y-78044929D01*
X116537356Y-77970831D01*
X116619616Y-77870597D01*
X116726402Y-77670815D01*
X116792160Y-77454039D01*
X116814364Y-77228600D01*
X116814364Y-75628600D01*
X116792160Y-75403161D01*
X116726402Y-75186385D01*
X116619616Y-74986603D01*
X116475907Y-74811493D01*
X116300797Y-74667784D01*
X116101015Y-74560998D01*
X115884239Y-74495240D01*
X115658800Y-74473036D01*
X114058800Y-74473036D01*
X113833361Y-74495240D01*
X113616585Y-74560998D01*
X113416803Y-74667784D01*
X113241693Y-74811493D01*
X113097984Y-74986603D01*
X112991198Y-75186385D01*
X112925440Y-75403161D01*
X112903236Y-75628600D01*
X112903236Y-77228600D01*
X112925440Y-77454039D01*
X112991198Y-77670815D01*
X113097984Y-77870597D01*
X113180244Y-77970831D01*
X113130733Y-78044929D01*
X112983738Y-78399806D01*
X112908800Y-78776542D01*
X112908800Y-79160658D01*
X112983738Y-79537394D01*
X113130733Y-79892271D01*
X113344136Y-80211652D01*
X113371084Y-80238600D01*
X113344136Y-80265548D01*
X113130733Y-80584929D01*
X112983738Y-80939806D01*
X112908800Y-81316542D01*
X112908800Y-81700658D01*
X112939066Y-81852813D01*
X105821244Y-74734993D01*
X105769571Y-74672029D01*
X105518326Y-74465838D01*
X105481960Y-74446400D01*
X132107749Y-74446400D01*
X132111315Y-74449966D01*
G37*
X132111315Y-74449966D02*
X132279229Y-74654571D01*
X132342193Y-74706244D01*
X133954760Y-76318812D01*
X134006429Y-76381771D01*
X134227086Y-76562859D01*
X134257674Y-76587962D01*
X134544317Y-76741177D01*
X134855344Y-76835525D01*
X135178800Y-76867383D01*
X135259852Y-76859400D01*
X138418736Y-76859400D01*
X138357750Y-76933711D01*
X138240936Y-77152255D01*
X138169002Y-77389389D01*
X138144713Y-77636000D01*
X138150800Y-77917500D01*
X138465300Y-78232000D01*
X140004800Y-78232000D01*
X140004800Y-78212000D01*
X140512800Y-78212000D01*
X140512800Y-78232000D01*
X140532800Y-78232000D01*
X140532800Y-78740000D01*
X140512800Y-78740000D01*
X140512800Y-80279500D01*
X140827300Y-80594000D01*
X141108800Y-80600087D01*
X141355411Y-80575798D01*
X141592545Y-80503864D01*
X141811089Y-80387050D01*
X141928823Y-80290428D01*
X142215422Y-80409141D01*
X142601817Y-80486000D01*
X142995783Y-80486000D01*
X143382178Y-80409141D01*
X143746155Y-80258377D01*
X144068800Y-80042792D01*
X144391445Y-80258377D01*
X144755422Y-80409141D01*
X145141817Y-80486000D01*
X145535783Y-80486000D01*
X145922178Y-80409141D01*
X146286155Y-80258377D01*
X146608800Y-80042792D01*
X146931445Y-80258377D01*
X147295422Y-80409141D01*
X147681817Y-80486000D01*
X148075783Y-80486000D01*
X148462178Y-80409141D01*
X148768800Y-80282134D01*
X148768801Y-81101775D01*
X148398338Y-81349310D01*
X147973510Y-81774138D01*
X147639725Y-82273683D01*
X147409809Y-82828748D01*
X147304843Y-83356451D01*
X147230191Y-82981148D01*
X147000275Y-82426083D01*
X146666490Y-81926538D01*
X146241662Y-81501710D01*
X145742117Y-81167925D01*
X145187052Y-80938009D01*
X144597799Y-80820800D01*
X143997001Y-80820800D01*
X143407748Y-80938009D01*
X142852683Y-81167925D01*
X142353138Y-81501710D01*
X141928310Y-81926538D01*
X141612889Y-82398600D01*
X131840814Y-82398600D01*
X131973862Y-82077394D01*
X132048800Y-81700658D01*
X132048800Y-81316542D01*
X131973862Y-80939806D01*
X131826867Y-80584929D01*
X131648652Y-80318211D01*
X131671614Y-80295870D01*
X131900330Y-79963526D01*
X132059815Y-79592948D01*
X132076187Y-79538953D01*
X131914206Y-79336000D01*
X138144713Y-79336000D01*
X138169002Y-79582611D01*
X138240936Y-79819745D01*
X138357750Y-80038289D01*
X138514956Y-80229844D01*
X138706511Y-80387050D01*
X138925055Y-80503864D01*
X139162189Y-80575798D01*
X139408800Y-80600087D01*
X139690300Y-80594000D01*
X140004800Y-80279500D01*
X140004800Y-78740000D01*
X138465300Y-78740000D01*
X138150800Y-79054500D01*
X138144713Y-79336000D01*
X131914206Y-79336000D01*
X131823699Y-79222600D01*
X130352800Y-79222600D01*
X130352800Y-79242600D01*
X129844800Y-79242600D01*
X129844800Y-79222600D01*
X128373901Y-79222600D01*
X128121413Y-79538953D01*
X128137785Y-79592948D01*
X128297270Y-79963526D01*
X128525986Y-80295870D01*
X128548948Y-80318211D01*
X128370733Y-80584929D01*
X128223738Y-80939806D01*
X128148800Y-81316542D01*
X128148800Y-81700658D01*
X128223738Y-82077394D01*
X128354190Y-82392333D01*
X128290558Y-82398600D01*
X128290548Y-82398600D01*
X128048144Y-82422475D01*
X127737117Y-82516823D01*
X127450474Y-82670038D01*
X127199229Y-82876229D01*
X127147555Y-82939194D01*
X126957394Y-83129355D01*
X126894429Y-83181029D01*
X126688238Y-83432275D01*
X126535023Y-83718918D01*
X126440675Y-84029945D01*
X126416800Y-84272349D01*
X126416800Y-84272358D01*
X126408818Y-84353400D01*
X126416800Y-84434442D01*
X126416801Y-112904000D01*
X116590293Y-112904000D01*
X116733862Y-112557394D01*
X116808800Y-112180658D01*
X116808800Y-111796542D01*
X116733862Y-111419806D01*
X116586867Y-111064929D01*
X116373464Y-110745548D01*
X116346516Y-110718600D01*
X116373464Y-110691652D01*
X116586867Y-110372271D01*
X116733862Y-110017394D01*
X116808800Y-109640658D01*
X116808800Y-109256542D01*
X116733862Y-108879806D01*
X116586867Y-108524929D01*
X116373464Y-108205548D01*
X116346516Y-108178600D01*
X116373464Y-108151652D01*
X116586867Y-107832271D01*
X116733862Y-107477394D01*
X116808800Y-107100658D01*
X116808800Y-106716542D01*
X116733862Y-106339806D01*
X116586867Y-105984929D01*
X116373464Y-105665548D01*
X116346516Y-105638600D01*
X116373464Y-105611652D01*
X116586867Y-105292271D01*
X116733862Y-104937394D01*
X116808800Y-104560658D01*
X116808800Y-104176542D01*
X116733862Y-103799806D01*
X116586867Y-103444929D01*
X116373464Y-103125548D01*
X116346516Y-103098600D01*
X116373464Y-103071652D01*
X116586867Y-102752271D01*
X116733862Y-102397394D01*
X116808800Y-102020658D01*
X116808800Y-101636542D01*
X116733862Y-101259806D01*
X116586867Y-100904929D01*
X116373464Y-100585548D01*
X116346516Y-100558600D01*
X116373464Y-100531652D01*
X116586867Y-100212271D01*
X116733862Y-99857394D01*
X116808800Y-99480658D01*
X116808800Y-99096542D01*
X116733862Y-98719806D01*
X116586867Y-98364929D01*
X116373464Y-98045548D01*
X116346516Y-98018600D01*
X116373464Y-97991652D01*
X116586867Y-97672271D01*
X116733862Y-97317394D01*
X116808800Y-96940658D01*
X116808800Y-96556542D01*
X116733862Y-96179806D01*
X116586867Y-95824929D01*
X116373464Y-95505548D01*
X116346516Y-95478600D01*
X116373464Y-95451652D01*
X116586867Y-95132271D01*
X116733862Y-94777394D01*
X116808800Y-94400658D01*
X116808800Y-94016542D01*
X116733862Y-93639806D01*
X116586867Y-93284929D01*
X116373464Y-92965548D01*
X116346516Y-92938600D01*
X116373464Y-92911652D01*
X116586867Y-92592271D01*
X116733862Y-92237394D01*
X116808800Y-91860658D01*
X116808800Y-91476542D01*
X116733862Y-91099806D01*
X116586867Y-90744929D01*
X116373464Y-90425548D01*
X116346516Y-90398600D01*
X116373464Y-90371652D01*
X116586867Y-90052271D01*
X116733862Y-89697394D01*
X116808800Y-89320658D01*
X116808800Y-88936542D01*
X116733862Y-88559806D01*
X116586867Y-88204929D01*
X116373464Y-87885548D01*
X116346516Y-87858600D01*
X116373464Y-87831652D01*
X116586867Y-87512271D01*
X116733862Y-87157394D01*
X116808800Y-86780658D01*
X116808800Y-86396542D01*
X116733862Y-86019806D01*
X116586867Y-85664929D01*
X116408652Y-85398211D01*
X116431614Y-85375870D01*
X116660330Y-85043526D01*
X116819815Y-84672948D01*
X116836187Y-84618953D01*
X116583699Y-84302600D01*
X115112800Y-84302600D01*
X115112800Y-84322600D01*
X114604800Y-84322600D01*
X114604800Y-84302600D01*
X114584800Y-84302600D01*
X114584800Y-83794600D01*
X114604800Y-83794600D01*
X114604800Y-83774600D01*
X115112800Y-83774600D01*
X115112800Y-83794600D01*
X116583699Y-83794600D01*
X116836187Y-83478247D01*
X116819815Y-83424252D01*
X116660330Y-83053674D01*
X116431614Y-82721330D01*
X116408652Y-82698989D01*
X116586867Y-82432271D01*
X116733862Y-82077394D01*
X116808800Y-81700658D01*
X116808800Y-81316542D01*
X116733862Y-80939806D01*
X116586867Y-80584929D01*
X116373464Y-80265548D01*
X116346516Y-80238600D01*
X116373464Y-80211652D01*
X116586867Y-79892271D01*
X116733862Y-79537394D01*
X116808800Y-79160658D01*
X116808800Y-78776542D01*
X116733862Y-78399806D01*
X116733217Y-78398247D01*
X128121413Y-78398247D01*
X128373901Y-78714600D01*
X129844800Y-78714600D01*
X129844800Y-78694600D01*
X130352800Y-78694600D01*
X130352800Y-78714600D01*
X131823699Y-78714600D01*
X132076187Y-78398247D01*
X132059815Y-78344252D01*
X131900330Y-77973674D01*
X131671614Y-77641330D01*
X131648652Y-77618989D01*
X131826867Y-77352271D01*
X131973862Y-76997394D01*
X132048800Y-76620658D01*
X132048800Y-76236542D01*
X131973862Y-75859806D01*
X131826867Y-75504929D01*
X131613464Y-75185548D01*
X131341852Y-74913936D01*
X131022471Y-74700533D01*
X130667594Y-74553538D01*
X130290858Y-74478600D01*
X129906742Y-74478600D01*
X129530006Y-74553538D01*
X129175129Y-74700533D01*
X128855748Y-74913936D01*
X128584136Y-75185548D01*
X128370733Y-75504929D01*
X128223738Y-75859806D01*
X128148800Y-76236542D01*
X128148800Y-76620658D01*
X128223738Y-76997394D01*
X128370733Y-77352271D01*
X128548948Y-77618989D01*
X128525986Y-77641330D01*
X128297270Y-77973674D01*
X128137785Y-78344252D01*
X128121413Y-78398247D01*
X116733217Y-78398247D01*
X116586867Y-78044929D01*
X116537356Y-77970831D01*
X116619616Y-77870597D01*
X116726402Y-77670815D01*
X116792160Y-77454039D01*
X116814364Y-77228600D01*
X116814364Y-75628600D01*
X116792160Y-75403161D01*
X116726402Y-75186385D01*
X116619616Y-74986603D01*
X116475907Y-74811493D01*
X116300797Y-74667784D01*
X116101015Y-74560998D01*
X115884239Y-74495240D01*
X115658800Y-74473036D01*
X114058800Y-74473036D01*
X113833361Y-74495240D01*
X113616585Y-74560998D01*
X113416803Y-74667784D01*
X113241693Y-74811493D01*
X113097984Y-74986603D01*
X112991198Y-75186385D01*
X112925440Y-75403161D01*
X112903236Y-75628600D01*
X112903236Y-77228600D01*
X112925440Y-77454039D01*
X112991198Y-77670815D01*
X113097984Y-77870597D01*
X113180244Y-77970831D01*
X113130733Y-78044929D01*
X112983738Y-78399806D01*
X112908800Y-78776542D01*
X112908800Y-79160658D01*
X112983738Y-79537394D01*
X113130733Y-79892271D01*
X113344136Y-80211652D01*
X113371084Y-80238600D01*
X113344136Y-80265548D01*
X113130733Y-80584929D01*
X112983738Y-80939806D01*
X112908800Y-81316542D01*
X112908800Y-81700658D01*
X112939066Y-81852813D01*
X105821244Y-74734993D01*
X105769571Y-74672029D01*
X105518326Y-74465838D01*
X105481960Y-74446400D01*
X132107749Y-74446400D01*
X132111315Y-74449966D01*
M02*
