M48
; DRILL file {KiCad (5.1.5)-3} date 05.06.2020 21:21:36
; FORMAT={-:-/ absolute / inch / decimal}
; #@! TF.CreationDate,2020-06-05T21:21:36+02:00
; #@! TF.GenerationSoftware,Kicad,Pcbnew,(5.1.5)-3
FMAT,2
INCH
T1C0.0315
T2C0.0390
T3C0.0394
T4C0.0866
%
G90
G05
T1
X5.309Y-3.09
X5.354Y-2.788
X4.331Y-4.079
X4.331Y-4.479
X4.522Y-3.009
X4.522Y-3.109
X4.522Y-3.209
X4.522Y-3.309
X4.522Y-3.409
X4.522Y-3.509
X4.522Y-3.609
X4.522Y-3.709
X4.522Y-3.809
X4.522Y-3.909
X4.522Y-4.009
X4.522Y-4.109
X4.522Y-4.209
X4.522Y-4.309
X4.522Y-4.409
X5.122Y-3.009
X5.122Y-3.109
X5.122Y-3.209
X5.122Y-3.309
X5.122Y-3.409
X5.122Y-3.509
X5.122Y-3.609
X5.122Y-3.709
X5.122Y-3.809
X5.122Y-3.909
X5.122Y-4.009
X5.122Y-4.109
X5.122Y-4.209
X5.122Y-4.309
X5.122Y-4.409
X3.87Y-4.683
X4.27Y-4.683
X3.944Y-3.735
X4.344Y-3.735
T2
X3.878Y-4.153
X3.878Y-4.253
X3.878Y-4.353
X3.878Y-4.453
X4.178Y-4.153
X4.178Y-4.253
X4.178Y-4.353
X4.178Y-4.453
T3
X4.485Y-4.8111
X4.485Y-5.008
X5.919Y-3.296
X5.681Y-3.302
X4.027Y-2.986
X4.027Y-3.086
X4.027Y-3.186
X4.027Y-3.286
X4.027Y-3.386
X5.522Y-3.09
X5.622Y-3.09
X5.722Y-3.09
X5.822Y-3.09
X5.922Y-3.09
X5.603Y-4.9626
X5.803Y-4.963
X5.73Y-3.615
X5.73Y-3.715
X5.73Y-3.815
X5.73Y-3.915
X5.73Y-4.015
X5.73Y-4.115
X6.178Y-4.514
X6.178Y-4.614
X6.178Y-4.714
X5.436Y-3.434
X5.436Y-3.534
X5.436Y-3.634
X5.436Y-3.734
X3.953Y-4.969
X4.1499Y-4.969
X5.092Y-4.915
X4.049Y-3.952
X4.149Y-3.952
X4.249Y-3.952
T4
X5.727Y-4.414
T0
M30
